<?xml version="1.0" standalone="no"?>
<!DOCTYPE svg PUBLIC "-//W3C//DTD SVG 1.1//EN" "http://www.w3.org/Graphics/SVG/1.1/DTD/svg11.dtd" >
<svg xmlns="http://www.w3.org/2000/svg">
<metadata>
<json>
<![CDATA[
{
	"fontFamily": "FontMerlin",
	"majorVersion": 1,
	"minorVersion": 1,
	"designer": "Dandy, CBG, Maverick, The Doctor, Daniel-san, The Cowboy, Elvis, Dandrews",
	"description": "a cool multi-colored test font\nFont generated by IcoMoon.",
	"version": "Version 1.1",
	"fontId": "FontMerlin",
	"psName": "FontMerlin",
	"subFamily": "Regular",
	"fullName": "FontMerlin"
}
]]>
</json>
</metadata>
<defs>
<font id="FontMerlin" horiz-adv-x="1024">
<font-face units-per-em="1024" ascent="960" descent="-64" />
<missing-glyph horiz-adv-x="1024" />
<glyph unicode="&#x20;" horiz-adv-x="512" d="" />
<glyph unicode="&#xe900;" d="M362.455 286.208h-53.371c-113.91 0-206.111-92.365-206.111-206.070v-57.201c0-35.922 29.123-65.188 65.126-65.188h687.944c35.86 0 65.004 29.266 65.004 65.188v57.201c0.123 113.91-92.201 206.213-206.049 206.213l-352.543-0.143z" />
<glyph unicode="&#xe901;" d="M667.32 286.351c-27.566 0-49.992 22.405-49.992 49.93 0 10.24 4.096 20.050 11.51 27.197 30.966 30.126 56.975 70.636 75.776 114.217 3.85-2.826 7.967-4.874 12.677-4.874 29.839 0 65.106 66.068 65.106 111.104 0 44.954-4.198 81.51-34.161 81.51-3.461 0-7.229-0.655-11.018-1.597-2.212 122.081-31.539 257.126-217.928 257.126-194.499 0-218.604-134.758-220.815-256.778-2.765 0.573-5.489 1.249-8.049 1.249-29.962 0-34.038-36.557-34.038-81.51 0-45.036 35.062-111.104 65.024-111.104 3.727 0 7.168 1.044 10.383 2.908 18.76-42.947 44.503-82.657 74.977-112.394 7.311-7.148 11.428-16.835 11.428-27.156 0-27.587-22.426-49.93-49.93-49.93l299.049 0.102z" />
<glyph unicode="&#xe902;" d="M519.291 850.145c191.488 0 237.22-280.207 237.22-149.197s-106.148 237.24-237.22 237.24c-130.99 0-237.24-106.25-237.24-237.24s62.935 149.197 237.24 149.197z" />
<glyph unicode="&#xe903;" d="M643.604 380.723c-23.634 0-42.865 19.21-42.865 42.844 0 8.765 3.482 17.162 9.81 23.306 26.563 25.825 48.886 60.559 65.004 97.915 3.277-2.437 6.799-4.198 10.834-4.198 25.6 0 55.828 56.648 55.828 95.252 0 38.523-3.625 69.878-29.307 69.878-2.99 0-6.205-0.553-9.441-1.372-1.905 104.653-26.993 220.406-186.839 220.406-166.748 0-187.392-115.507-189.276-220.099-2.396 0.492-4.731 1.065-6.922 1.065-25.682 0-29.184-31.355-29.184-69.878 0-38.625 30.085-95.252 55.767-95.252 3.195 0 6.144 0.922 8.909 2.499 16.097-36.823 38.134-70.861 64.266-96.338 6.267-6.124 9.81-14.438 9.81-23.286 0-23.613-19.231-42.803-42.824-42.803l256.43 0.061z" />
<glyph unicode="&#xe904;" d="M516.69 864.031c164.168 0 203.387-240.21 203.387-127.898 0 112.292-91.013 203.366-203.387 203.366-112.292 0-203.387-91.095-203.387-203.366s53.944 127.898 203.387 127.898z" />
<glyph unicode="&#xe905;" d="M692.101 138.772c0-12.578-10.196-22.774-22.774-22.774s-22.774 10.196-22.774 22.774c0 12.578 10.196 22.774 22.774 22.774s22.774-10.196 22.774-22.774z" />
<glyph unicode="&#xe906;" d="M669.327 75.039c-35.144 0-63.713 28.59-63.713 63.713 0 35.164 28.59 63.754 63.713 63.754s63.734-28.59 63.734-63.754c0-35.123-28.611-63.713-63.734-63.713zM669.327 156.959c-10.015 0-18.186-8.151-18.186-18.207 0-10.015 8.151-18.166 18.186-18.166s18.207 8.131 18.207 18.166c-0.020 10.056-8.172 18.207-18.207 18.207z" />
<glyph unicode="&#xe907;" d="M401.981 224.604c-10.895 10.281-23.962 16.609-37.765 16.609-14.254 0-27.484-6.328-38.216-17.203 20.562 4.547 46.735 6.185 75.981 0.594z" />
<glyph unicode="&#xe908;" d="M325.98 183.030c-14.664 0-28.508 7.905-35.84 21.135-8.786 15.872-6.062 35.656 6.676 48.579 35.164 35.676 90.296 38.543 129.126 5.345 10.506-7.414 17.388-19.661 17.388-33.505 0-22.589-18.289-40.899-40.878-40.96-2.478 0.041-5.448 0.225-8.192 0.737-20.275 3.85-41.001 3.707-59.412-0.369-2.929-0.635-5.919-0.963-8.868-0.963z" />
<glyph unicode="&#xe909;" d="M876.073 62.321c-17.818 114.77-89.129 211.968-187.372 265.155 4.588-32.645 9.093-87.47-1.782-136.008 21.75-7.475 37.806-27.914 37.806-52.552 0-30.29-24.556-55.398-55.398-55.398-30.29 0-55.439 24.515-55.439 55.398 0 26.276 18.289 48.046 42.988 53.596 14.848 57.201 2.785 130.867-0.594 150.2-1.454 0.676-2.99 1.126-4.485 1.679l0.123 0.205c-1.536 0.594-3.215 1.024-4.69 1.597-1.044 0.348-2.007 0.799-2.99 1.126-0.020-0.020-0.082-0.061-0.102-0.102-39.547 14.356-83.702 22.016-127.939 22.016-44.052 0-85.934-8.806-125.030-23.122-5.12-10.875-14.848-37.151-13.087-76.554 48.517-9.134 85.709-65.126 85.709-133.14 0-25.149-5.161-49.705-14.868-70.84-5.14-15.421-27.484-21.75-37.765-21.75-15.421 0-27.914 12.595-27.914 27.853 0 15.299 12.636 27.955 27.914 27.955 4.567 0 10.875-1.229 17.777-3.4 11.305 37.478 2.806 75.366-2.785 90.173-54.825 24.003-105.083 7.475-123.453 0-5.14-14.868-14.541-49.357-2.806-90.173 6.902 2.785 13.087 3.932 17.797 3.932 15.421 0 27.935-12.636 27.935-27.894s-12.636-27.914-27.935-27.914c-9.708 0-31.478 6.349-37.192 20.541-10.281 21.75-15.421 46.367-15.421 72.090 0 66.867 36.598 122.245 83.907 132.567-1.167 25.743 2.376 47.473 6.328 63.365-104.182-52.47-179.589-151.839-197.816-270.602-4.547-29.082 18.227-55.378 47.473-55.378h623.288c29.594-0.164 52.367 26.132 47.821 55.378z" />
<glyph unicode="&#xe90a;" d="M828.477-34.017c-0.020 0-0.020 0 0 0-0.082 0-0.43 0-0.492 0h-623.063c-25.989 0-50.647 11.387-67.604 31.191-16.937 19.804-24.33 45.834-20.337 71.475 19.804 128.963 101.99 241.48 219.853 300.831 7.516 3.809 15.852 5.1 23.839 4.014 4.424 4.915 10.035 8.745 16.364 11.059 46.408 16.998 93.204 25.62 139.121 25.62 47.575 0 95.478-8.069 138.752-23.347 0.573-0.164 1.188-0.348 1.761-0.532 0.922-0.287 3.318-1.167 4.198-1.516 2.662-0.86 4.301-1.413 5.898-2.048 1.044-0.41 2.089-0.86 3.092-1.352 1.27-0.471 2.478-1.004 3.686-1.536 5.734-2.683 10.691-6.615 14.582-11.428 6.943 0.061 13.804-1.556 20.050-4.936 111.145-60.17 189.010-170.414 208.364-294.892 3.973-25.682-3.441-51.712-20.337-71.475-16.937-19.763-41.636-31.13-67.727-31.13zM700.989 47.903h127.508c2.785 0 4.547 1.372 5.53 2.519 0.963 1.126 2.028 2.99 1.597 5.612-11.305 72.745-47.677 139.428-101.192 188.785-0.369-10.793-1.147-21.77-2.478-32.748 20.992-17.981 33.751-44.483 33.751-73.155-0.020-42.045-27.116-77.906-64.717-91.013zM485.949 47.903h151.716c-37.663 13.128-64.737 48.988-64.737 91.013 0 35.246 18.78 66.396 47.985 83.128 3.4 25.108 2.908 56.422-1.454 90.337-60.375 19.395-128.655 22.241-196.526 1.27-1.167-4.485-2.232-9.789-2.99-15.892 50.688-26.87 84.787-89.149 84.787-161.321 0-30.372-6.164-60.17-17.859-86.282-0.307-0.778-0.594-1.516-0.922-2.253zM224.133 142.479c-12.657-27.177-21.565-56.218-26.194-86.385-0.43-2.642 0.655-4.526 1.618-5.652 0.983-1.167 2.724-2.54 5.366-2.54h38.257c-0.061 0.123-0.102 0.266-0.164 0.389-12.575 26.931-18.944 56.771-18.944 88.719 0 1.802 0.020 3.645 0.061 5.468zM335.155 138.895c11.203-2.949 21.32-8.643 29.532-16.343 8.069 7.393 17.92 12.882 28.795 15.79-0.123 6.001-0.717 11.612-1.516 16.568-18.821 4.628-40.202 3.154-55.357-0.451-0.799-4.854-1.331-10.056-1.454-15.565zM670.577 153.928c-1.536-0.532-3.113-1.004-4.71-1.352-6.492-1.454-11.018-7.066-11.018-13.64 0-7.967 6.492-14.438 14.479-14.438 7.967 0 14.438 6.472 14.438 14.438 0 7.148-5.1 12.083-10.158 13.824-1.024 0.348-2.048 0.737-3.031 1.167z" />
<glyph unicode="&#xe90b;" d="M692.101 138.772c0-12.578-10.196-22.774-22.774-22.774s-22.774 10.196-22.774 22.774c0 12.578 10.196 22.774 22.774 22.774s22.774-10.196 22.774-22.774z" />
<glyph unicode="&#xe90c;" d="M401.981 224.604c-10.895 10.281-23.962 16.609-37.765 16.609-14.254 0-27.484-6.328-38.216-17.203 20.562 4.547 46.735 6.185 75.981 0.594z" />
<glyph unicode="&#xe90d;" d="M876.073 62.321c-17.818 114.77-89.129 211.968-187.372 265.155 4.588-32.645 9.093-87.47-1.782-136.008 21.75-7.475 37.806-27.914 37.806-52.552 0-30.29-24.556-55.398-55.398-55.398-30.29 0-55.439 24.515-55.439 55.398 0 26.276 18.289 48.046 42.988 53.596 14.848 57.201 2.785 130.867-0.594 150.2-1.454 0.676-2.99 1.126-4.485 1.679l0.123 0.205c-1.536 0.594-3.215 1.024-4.69 1.597-1.044 0.348-2.007 0.799-2.99 1.126-0.020-0.020-0.082-0.061-0.102-0.102-39.547 14.356-83.702 22.016-127.939 22.016-44.052 0-85.934-8.806-125.030-23.122-5.12-10.875-14.848-37.151-13.087-76.554 48.517-9.134 85.709-65.126 85.709-133.14 0-25.149-5.161-49.705-14.868-70.84-5.14-15.421-27.484-21.75-37.765-21.75-15.421 0-27.914 12.595-27.914 27.853 0 15.299 12.636 27.955 27.914 27.955 4.567 0 10.875-1.229 17.777-3.4 11.305 37.478 2.806 75.366-2.785 90.173-54.825 24.003-105.083 7.475-123.453 0-5.14-14.868-14.541-49.357-2.806-90.173 6.902 2.785 13.087 3.932 17.797 3.932 15.421 0 27.935-12.636 27.935-27.894s-12.636-27.914-27.935-27.914c-9.708 0-31.478 6.349-37.192 20.541-10.281 21.75-15.421 46.367-15.421 72.090 0 66.867 36.598 122.245 83.907 132.567-1.167 25.743 2.376 47.473 6.328 63.365-104.182-52.47-179.589-151.839-197.816-270.602-4.547-29.082 18.227-55.378 47.473-55.378h623.288c29.594-0.164 52.367 26.132 47.821 55.378z" />
<glyph unicode="&#xe90e;" d="M593.9 469.688h197.55c0 0 89.375 121.385 99.389 139.039 9.851 17.654 2.13 145.674-126.894 88.289-56.955-76.022-170.045-227.328-170.045-227.328z" />
<glyph unicode="&#xe90f;" d="M796.59 459.448h-223.13l183.788 245.821 2.437 1.085c60.129 26.685 106.25 18.104 129.72-22.057 17.039-29.143 17.49-67.83 10.281-80.609-10.117-17.981-96.317-135.127-100.024-140.083l-3.072-4.157zM614.339 479.928h171.909c26.829 36.352 88.003 120.32 95.601 133.816 2.99 5.693 3.85 37.417-10.67 61.317-18.207 29.778-52.9 34.243-100.659 13.66l-156.18-208.794z" />
<glyph unicode="&#xe910;" d="M507.29 127.14c-61.399 0-114.074 1.29-159.457 17.777v-128.492c0 0 5.53-12.165 14.336-12.165 8.827 0 267.080 0 273.674 0 6.615 0 17.633 14.909 17.633 14.909v121.631c-42.066-13.926-90.378-13.66-146.186-13.66z" />
<glyph unicode="&#xe911;" d="M635.843-5.98h-273.674c-14.971 0-22.815 16.302-23.654 18.186l-0.922 4.219v143.094l13.722-4.977c43.848-15.892 94.413-17.162 155.976-17.162h6.001c50.012 0 97.28 0 136.97 13.148l13.455 4.485v-139.203l-2.007-2.724c-6.431-8.704-16.159-19.067-25.866-19.067zM358.052 18.985c1.413-2.253 3.318-4.26 4.219-4.506l272.548 0.020c1.843 1.065 5.366 4.547 8.417 8.172v104.448c-39.526-10.22-83.579-10.22-129.966-10.22h-5.98c-55.501 0-105.492 1.147-149.217 13.947l-0.020-111.862z" />
<glyph unicode="&#xe912;" d="M101.56 472.596c18.76 0 770.232 0 792.33 0 22.036 0 31.99-32.010 31.99-32.010s-39.711-378.716-419.881-378.716c-380.17 0-430.92 376.504-430.92 376.504s7.721 34.222 26.481 34.222z" />
<glyph unicode="&#xe913;" d="M505.999 51.63c-384.655 0-440.545 381.522-441.078 385.311l-0.246 1.843 0.41 1.782c0.983 4.362 10.281 42.25 36.475 42.25h792.33c29.327 0 41.349-37.622 41.759-39.219l0.614-2.007-0.225-2.109c-0.348-3.85-45.117-387.85-430.039-387.85zM85.504 437.862c4.751-31.58 63.631-365.773 420.495-365.773 355.43 0 405.34 333.763 409.436 367.37-2.888 7.578-10.834 22.938-21.565 22.938h-792.31c-6.39-0.041-13.251-13.947-16.056-24.535z" />
<glyph unicode="&#xe914;" d="M868.27 386.99c0 0-78.070-234.25-224.010-259.85 16.22 21.34 18.801 15.79 24.76 23.9 113.48 58.040 199.25 235.95 199.25 235.95z" />
<glyph unicode="&#xe915;" d="M301.24 442.040c0 0-128-1.7-157.020-1.7s-35.84-28.16-13.66-63.14c-23.040 64.84 170.68 64.84 170.68 64.84z" />
<glyph unicode="&#xe916;" d="M54.845 599.081h910.438v-537.17h-910.438v537.17z" />
<glyph unicode="&#xe917;" d="M718.991 712.315h40.96v-93.327h-40.96v93.327z" />
<glyph unicode="&#xe918;" d="M286.72 712.315h40.96v-93.327h-40.96v93.327z" />
<glyph unicode="&#xe919;" d="M836.035 691.835h-625.398c-11.305 0-20.48 9.175-20.48 20.48v168.182c0 11.305 9.175 20.48 20.48 20.48h625.418c11.325 0 20.48-9.175 20.48-20.48v-168.182c-0.020-11.305-9.175-20.48-20.5-20.48z" />
<glyph unicode="&#xe91a;" d="M430.981 305.562h-247.562c-11.305 0-20.48 9.155-20.48 20.48v134.636c0 11.305 9.175 20.48 20.48 20.48h247.583c11.305 0 20.48-9.175 20.48-20.48v-134.636c-0.020-11.325-9.175-20.48-20.5-20.48z" />
<glyph unicode="&#xe91b;" d="M836.035 175.944h-143.872c-11.325 0-20.48 9.155-20.48 20.48v268.145c0 11.305 9.155 20.48 20.48 20.48h143.872c11.325 0 20.48-9.175 20.48-20.48v-268.145c0-11.325-9.155-20.48-20.48-20.48z" />
<glyph unicode="&#xe91c;" d="M872.98 96.85h-217.764c-11.325 0-20.48 9.155-20.48 20.48v79.073c0 11.325 9.155 20.48 20.48 20.48h217.764c11.325 0 20.48-9.155 20.48-20.48v-79.073c0-11.305-9.155-20.48-20.48-20.48z" />
<glyph unicode="&#xe91d;" d="M985.764 20.378h-951.419c-11.305 0-20.48 9.155-20.48 20.48v578.13c0 11.305 9.175 20.48 20.48 20.48h951.419c11.325 0 20.48-9.175 20.48-20.48v-578.13c0-11.325-9.155-20.48-20.48-20.48zM54.825 61.338h910.459v537.17h-910.459v-537.17z" />
<glyph unicode="&#xe91e;" d="M904.745 20.378h-281.293c-11.325 0-20.48 9.155-20.48 20.48v70.001c0 11.325 9.155 20.48 20.48 20.48h281.272c11.325 0 20.48-9.155 20.48-20.48v-70.001c0.020-11.325-9.155-20.48-20.46-20.48z" />
<glyph unicode="&#xe91f;" d="M1018.757 560.067c-4.116 4.813-10.117 7.578-16.486 7.578h-45.896v243.261c0 16.65-13.537 30.208-30.228 30.208h-524.104l-42.476 70.779c-5.407 9.052-15.34 14.684-25.928 14.684h-235.827c-16.65 0-30.228-13.558-30.228-30.208v-328.724h-45.875c-6.328 0-12.349-2.744-16.466-7.537-4.137-4.792-5.98-11.121-5.018-17.449l84.050-554.824c1.659-10.67 10.67-18.412 21.463-18.412h812.462c10.793 0 19.825 7.741 21.484 18.473l84.050 554.68c0.983 6.308-0.819 12.657-4.977 17.49z" />
<glyph unicode="&#xe920;" d="M149.811 668.938h720.957v-111.432h-720.957v111.432z" />
<glyph unicode="&#xe921;" d="M1018.757 560.067c-4.116 4.813-10.117 7.578-16.486 7.578h-45.896v243.261c0 16.65-13.537 30.208-30.228 30.208h-524.104l-42.476 70.779c-5.407 9.052-15.34 14.684-25.907 14.684h-235.848c-16.671 0-30.228-13.558-30.228-30.208v-328.724h-45.875c-6.328 0-12.349-2.744-16.466-7.537-4.137-4.792-5.98-11.121-5.018-17.449l84.050-554.824c1.659-10.67 10.67-18.412 21.463-18.412h812.442c10.793 0 19.825 7.741 21.484 18.473l84.050 554.68c1.004 6.308-0.799 12.657-4.956 17.49zM101.806 892.375h229.601l42.476-70.779c5.427-9.052 15.36-14.684 25.907-14.684h522.424v-239.288h-34.181v119.644h-752.046v-119.644h-34.181v324.751zM373.883 821.617c5.427-9.052 15.36-14.684 25.907-14.684zM853.832 567.644h-683.663v85.463h683.663v-85.463zM907.51 3.604h-791.020l-80.261 529.838h951.583l-80.302-529.838z" />
<glyph unicode="&#xe922;" d="M968.888 721.183h-913.797c-16.261 0-29.512-13.23-29.512-29.512v-487.342c0-16.282 13.23-29.491 29.512-29.491h913.797c16.282 0 29.491 13.23 29.491 29.491v487.342c0.020 16.261-13.21 29.512-29.491 29.512z" />
<glyph unicode="&#xe923;" d="M222.638 462.275c-7.885 0-14.254-6.39-14.254-14.275 0-8.929-7.25-16.2-16.2-16.2-8.929 0-16.179 7.27-16.179 16.2s7.25 16.179 16.179 16.179c7.885 0 14.275 6.39 14.275 14.275s-6.39 14.275-14.275 14.275c-24.658 0-44.749-20.050-44.749-44.728s20.070-44.728 44.749-44.728c24.678 0 44.728 20.050 44.728 44.728 0 7.885-6.39 14.275-14.275 14.275z" />
<glyph unicode="&#xe924;" d="M831.836 431.8c-8.97 0-16.2 7.27-16.2 16.2s7.25 16.179 16.2 16.179c7.885 0 14.234 6.39 14.234 14.275s-6.39 14.275-14.234 14.275c-24.678 0-44.769-20.050-44.769-44.728s20.050-44.728 44.769-44.728c24.637 0 44.749 20.050 44.749 44.728 0 7.885-6.41 14.275-14.295 14.275s-14.295-6.39-14.295-14.275c0-8.929-7.25-16.2-16.159-16.2z" />
<glyph unicode="&#xe925;" d="M512 433.705c33.567 0 61.87-17.859 61.87-39.014 0-21.135-28.365-39.014-61.87-39.014-33.526 0-61.87 17.879-61.87 39.014 0 7.926-6.39 14.254-14.275 14.254s-14.275-6.369-14.275-14.254c0-34.243 32.461-61.829 76.165-66.785v-16.978c0-7.905 6.39-14.275 14.275-14.275s14.295 6.39 14.295 14.275v16.978c43.663 4.956 76.145 32.543 76.145 66.785 0 37.908-39.69 67.564-90.44 67.564-33.526 0-61.87 17.879-61.87 39.035s28.344 39.035 61.87 39.035c33.546 0 61.87-17.879 61.87-39.035 0-7.885 6.39-14.275 14.275-14.275s14.275 6.39 14.275 14.275c0 34.263-32.481 61.809-76.145 66.785v16.978c0 7.885-6.39 14.275-14.295 14.275-7.885 0-14.275-6.39-14.275-14.275v-16.978c-43.684-4.977-76.165-32.522-76.165-66.785 0-37.888 39.731-67.584 90.44-67.584z" />
<glyph unicode="&#xe926;" d="M968.929 721.183h-913.818c-16.261 0-29.512-13.23-29.512-29.512v-487.342c0-16.282 13.23-29.491 29.512-29.491h913.818c16.282 0 29.471 13.23 29.471 29.491v487.342c0 16.261-13.23 29.512-29.471 29.512zM969.83 204.329c0-0.492-0.43-0.963-0.963-0.963h-913.756c-0.512 0-0.942 0.43-0.942 0.963v487.342c0 0.512 0.43 0.942 0.942 0.942h913.818c0.471 0 0.922-0.43 0.922-0.942v-487.342h-0.020z" />
<glyph unicode="&#xe927;" d="M923.197 568.873c-42.516 0-77.128 34.591-77.128 77.107 0 7.885-6.39 14.275-14.234 14.275h-639.652c-7.885 0-14.275-6.39-14.275-14.275 0-42.516-34.57-77.107-77.107-77.107-7.885 0-14.275-6.39-14.275-14.275v-213.197c0-7.905 6.39-14.275 14.275-14.275 42.516 0 77.107-34.57 77.107-77.107 0-7.905 6.39-14.295 14.275-14.295h206.111c0.020 0 0.020 0 0.041 0s0.020 0 0.041 0h227.226c0 0 0.020 0 0.041 0s0.041 0 0.041 0h206.131c7.885 0 14.254 6.39 14.254 14.295 0 42.496 34.57 77.107 77.107 77.107 7.926 0 14.254 6.39 14.254 14.275v213.197c0.041 7.885-6.308 14.275-14.234 14.275zM726.159 448c0-75.039-39.916-145.080-104.448-183.726h-219.402c-64.532 38.646-104.468 108.687-104.468 183.726 0 75.059 39.936 145.080 104.468 183.706h219.402c64.532-38.625 104.448-108.646 104.448-183.706zM115.077 354.714v186.573c46.879 6.349 84.050 43.54 90.419 90.419h148.214c-52.92-45.65-84.439-112.701-84.439-183.706s31.519-138.035 84.439-183.726h-148.214c-6.349 46.879-43.54 84.091-90.419 90.44zM908.923 354.714c-46.858-6.39-84.050-43.561-90.399-90.44h-148.234c52.92 45.65 84.439 112.722 84.439 183.726s-31.519 138.035-84.439 183.706h148.234c6.369-46.879 43.54-84.050 90.399-90.419v-186.573z" />
<glyph unicode="&#xe928;" d="M134.82 932.68h797.020v-972.8h-797.020v972.8z" />
<glyph unicode="&#xe929;" d="M136.643 946.565h166.4v-996.987h-166.4v996.987z" />
<glyph unicode="&#xe92a;" d="M105.882 946.278h35.389v-996.557h-35.389v996.557z" />
<glyph unicode="&#xe92b;" d="M971.919-29.798l-71.045-20.48v996.557l71.045-20.48z" />
<glyph unicode="&#xe92c;" d="M52.961 306.77c9.748 0 17.654 7.905 17.654 17.633 0 29.245 23.757 52.982 52.961 52.982s52.961-23.736 52.961-52.982c0-9.769 7.905-17.633 17.654-17.633s17.654 7.905 17.654 17.633c0 48.681-39.608 88.289-88.269 88.289-48.681 0-88.289-39.608-88.289-88.289 0.020-9.769 7.926-17.633 17.674-17.633z" />
<glyph unicode="&#xe92d;" d="M52.961 518.615c9.748 0 17.654 7.885 17.654 17.654 0 29.204 23.757 52.961 52.961 52.961s52.961-23.757 52.961-52.961c0-9.769 7.905-17.654 17.654-17.654s17.654 7.885 17.654 17.654c0 48.66-39.608 88.269-88.269 88.269-48.681 0-88.289-39.608-88.289-88.269 0.020-9.769 7.926-17.654 17.674-17.654z" />
<glyph unicode="&#xe92e;" d="M918.118 959.939l-812.196 0.061v-125.379c-40.223-8.212-70.615-43.848-70.615-86.487 0-9.789 7.905-17.654 17.654-17.654s17.654 7.885 17.654 17.654c0 29.204 23.757 52.961 52.961 52.961s52.961-23.757 52.961-52.961c0-9.789 7.905-17.654 17.654-17.654s17.654 7.885 17.654 17.654c0 42.639-30.372 78.275-70.615 86.487v90.071h158.904v-953.364h-158.904v123.576c0 9.789-7.905 17.654-17.654 17.654s-17.654-7.926-17.654-17.654v-32.051c-20.5 7.311-35.308 26.747-35.308 49.746 0 29.204 23.757 52.961 52.961 52.961s52.961-23.757 52.961-52.961c0-9.789 7.905-17.654 17.654-17.654s17.654 7.926 17.654 17.654c0 48.681-39.608 88.31-88.269 88.31-48.681 0-88.289-39.629-88.289-88.31 0-42.639 30.392-78.275 70.615-86.508v-90.092h812.196c38.892 0 70.533 31.662 70.533 70.554v882.831c0.041 38.892-31.601 70.554-70.513 70.554zM335.442-28.672v953.283h464.671v-953.283h-464.671zM953.385 6.554c0-19.436-15.811-35.246-35.267-35.246h-14.889v953.303h14.889c19.436 0 35.267-15.79 35.267-35.246v-882.811zM819.22-28.672v953.283h69.181v-953.283h-69.181z" />
<glyph unicode="&#xe92f;" d="M489.964 404.972h-26.030c-55.521 0-100.475-45.015-100.475-100.454v-27.873c0-17.51 14.193-31.744 31.724-31.744h335.34c17.49 0 31.703 14.213 31.703 31.744v27.873c0.061 55.521-44.933 100.536-100.454 100.536l-171.807-0.082z" />
<glyph unicode="&#xe930;" d="M638.587 405.053c-13.455 0-24.371 10.916-24.371 24.33 0 4.997 2.007 9.789 5.591 13.271 15.073 14.664 27.75 34.406 36.946 55.644 1.843-1.372 3.85-2.376 6.144-2.376 14.561 0 31.744 32.195 31.744 54.149 0 21.914-2.068 39.731-16.63 39.731-1.7 0-3.523-0.328-5.407-0.778-1.044 59.515-16.036 124.273-106.906 124.273-94.802 0-105.841-64.614-106.906-124.088-1.352 0.266-2.683 0.594-3.912 0.594-14.602 0-16.589-17.818-16.589-39.731 0-21.955 17.080-54.149 31.683-54.149 1.823 0 3.482 0.492 5.059 1.413 9.155-20.931 21.688-40.284 36.536-54.784 3.584-3.461 5.55-8.192 5.55-13.23 0-13.435-10.916-24.33-24.33-24.33l145.797 0.061z" />
<glyph unicode="&#xe931;" d="M566.395 679.854c93.348 0 115.63-136.581 115.63-72.724s-51.732 115.63-115.63 115.63c-63.857 0-115.63-51.773-115.63-115.63s30.679 72.724 115.63 72.724z" />
<glyph unicode="&#xe932;" d="M47.186 714.875v-544.42h82.739v31.13h144.65v-31.13h488.96v31.13h144.63v-31.13h67.441v544.42z" />
<glyph unicode="&#xe933;" d="M985.846 160.215h-87.921v31.13h-124.15v-31.13h-509.44v31.13h-124.17v-31.13h-103.219v564.9h948.9v-564.9zM918.405 180.695h46.961v523.94h-907.94v-523.94h62.259v31.13h165.13v-31.13h468.48v31.13h165.11v-31.13z" />
<glyph unicode="&#xe934;" d="M647.496 647.025h255.16v-36.27h-255.16v36.27z" />
<glyph unicode="&#xe935;" d="M912.896 600.515h-275.64v56.75h275.64v-56.75zM657.736 620.995h234.68v15.79h-234.68v-15.79z" />
<glyph unicode="&#xe936;" d="M647.496 319.345h255.16v-36.27h-255.16v36.27z" />
<glyph unicode="&#xe937;" d="M912.896 272.835h-275.64v56.75h275.64v-56.75zM657.736 293.315h234.68v15.79h-234.68v-15.79z" />
<glyph unicode="&#xe938;" d="M647.496 483.185h255.16v-36.27h-255.16v36.27z" />
<glyph unicode="&#xe939;" d="M912.896 436.675h-275.64v56.75h275.64v-56.75zM657.736 457.155h234.68v15.79h-234.68v-15.79z" />
<glyph unicode="&#xe93a;" d="M136.786 654.705h434.34v-383.14h-434.34v383.14z" />
<glyph unicode="&#xe93b;" d="M581.366 261.325h-454.82v403.62h454.82v-403.62zM147.026 281.805h413.86v362.66h-413.86v-362.66z" />
<glyph unicode="&#xe93c;" d="M298.516 395.776h-18.104c-38.646 0-69.919-31.314-69.919-69.898v-19.374c0-12.206 9.871-22.118 22.077-22.118h233.37c12.165 0 22.057 9.912 22.057 22.118v19.354c0.020 38.666-31.273 69.98-69.919 69.98l-119.562-0.061z" />
<glyph unicode="&#xe93d;" d="M401.94 395.858c-9.359 0-16.957 7.578-16.957 16.896 0 3.482 1.352 6.799 3.871 9.236 10.486 10.24 19.313 23.941 25.723 38.748 1.311-0.922 2.683-1.659 4.26-1.659 10.138 0 22.077 22.405 22.077 37.683s-1.434 27.648-11.571 27.648c-1.188 0-2.478-0.205-3.748-0.512-0.737 41.411-11.182 86.856-74.404 86.856-65.987 0-73.687-45.343-74.424-86.733-0.942 0.205-1.843 0.41-2.724 0.41-10.158 0-11.53-12.37-11.53-27.648s11.878-37.683 22.057-37.683c1.27 0 2.437 0.348 3.523 0.963 6.369-14.561 15.073-28.017 25.416-38.134 2.499-2.396 3.85-5.693 3.85-9.196 0-9.359-7.598-16.937-16.937-16.937l101.519 0.061z" />
<glyph unicode="&#xe93e;" d="M351.724 587.1c64.942 0 80.486-95.068 80.486-50.627s-36.004 80.486-80.486 80.486c-44.442 0-80.486-36.045-80.486-80.486 0.020-44.442 21.361 50.627 80.486 50.627z" />
<glyph unicode="&#xe93f;" d="M869.54 788.337c-42.148 42.148-98.181 65.352-157.778 65.352s-115.63-23.204-157.778-65.352l-402.186-402.207c-42.148-42.148-65.352-98.161-65.352-157.757 0-59.576 23.204-115.63 65.352-157.798 42.148-42.127 98.181-65.311 157.778-65.311 59.617 0 115.63 23.245 157.798 65.311l402.186 402.227c42.168 42.148 65.352 98.181 65.352 157.798s-23.224 115.589-65.372 157.737z" />
<glyph unicode="&#xe940;" d="M309.576-15.237c-65.065 0-126.239 25.313-172.257 71.311-46.019 46.039-71.352 107.213-71.352 172.278 0 65.085 25.334 126.239 71.352 172.237l402.186 402.227c45.998 46.019 107.172 71.352 172.257 71.352s126.259-25.334 172.257-71.352c46.039-46.039 71.373-107.213 71.373-172.237 0-65.085-25.334-126.28-71.352-172.278l-402.186-402.227c-46.080-45.998-107.254-71.311-172.278-71.311zM711.762 833.208c-54.149 0-105.021-21.074-143.299-59.351l-402.186-402.227c-38.277-38.257-59.351-89.17-59.351-143.278s21.074-105.021 59.351-143.319c38.277-38.257 89.17-59.31 143.299-59.31 54.088 0 104.98 21.074 143.319 59.331l402.186 402.207c38.277 38.277 59.351 89.17 59.351 143.319 0 54.088-21.074 104.98-59.372 143.278-38.277 38.277-89.17 59.351-143.299 59.351z" />
<glyph unicode="&#xe941;" d="M335.442 569.795l-183.644-183.685c-42.148-42.168-65.352-98.161-65.352-157.757s23.204-115.63 65.352-157.798c42.148-42.127 98.181-65.331 157.778-65.331 59.617 0 115.63 23.224 157.798 65.331l183.644 183.685-315.576 315.556z" />
<glyph unicode="&#xe942;" d="M309.576-15.258c-65.044 0-126.218 25.334-172.257 71.332-46.019 46.019-71.352 107.192-71.352 172.278 0 65.065 25.334 126.218 71.352 172.237l198.124 198.164 344.535-344.515-198.124-198.164c-46.060-45.998-107.233-71.332-172.278-71.332zM335.442 540.836l-169.165-169.206c-38.277-38.277-59.351-89.17-59.351-143.278 0-54.149 21.074-105.042 59.351-143.319 38.298-38.257 89.19-59.331 143.299-59.331s105.001 21.074 143.319 59.331l169.165 169.206-286.618 286.597z" />
<glyph unicode="&#xe943;" d="M316.17 468.050l-112.906-112.906c-42.148-42.148-65.352-98.181-65.352-157.778 25.989 64.594 10.629 68.014 191.631 255.775l-13.373 14.909z" />
<glyph unicode="&#xe944;" d="M426.762 132.219c0 0-20.931-39.67-145.613-78.090 59.597 0 115.63 23.245 157.778 65.352l-12.165 12.739z" />
<glyph unicode="&#xe945;" d="M697.445 312.234l-47.021-47.021-303.878 303.878 47.021 47.021 303.878-303.878z" />
<glyph unicode="&#xe946;" d="M753.336 337.326c-4.731 15.892-10.424 29.737-17.060 41.492-6.697 11.817-16.323 23.286-28.713 34.55-12.513 11.244-23.757 20.275-33.71 27.095-9.912 6.881-23.572 14.623-41.042 23.081-17.285 8.499-31.089 14.848-41.247 19.026s-24.801 9.851-43.991 17.101c-16.978 6.513-29.635 11.489-37.99 14.889-8.335 3.461-19.231 8.335-32.85 14.705-13.537 6.308-23.695 11.94-30.392 16.835-6.717 4.874-13.844 10.854-21.463 17.92-7.598 7.066-12.902 14.561-15.995 22.548-3.092 7.967-4.649 16.691-4.649 26.071 0 24.617 10.875 44.728 32.584 60.273 21.729 15.606 49.787 23.388 84.173 23.388 15.155 0 30.72-2.089 46.408-6.246 15.79-4.198 29.245-8.868 40.53-14.090 11.203-5.263 21.77-11.059 31.805-17.388 9.871-6.328 16.957-11.1 21.156-14.377 4.116-3.256 6.758-5.386 7.885-6.533 4.69-3.604 9.585-4.874 14.684-3.809 5.448 0.369 9.605 3.277 12.472 8.724l44.032 79.278c4.342 7.25 3.4 14.111-2.765 20.685-2.15 2.171-4.895 4.69-8.11 7.578-3.236 2.949-10.383 8.172-21.197 15.79-10.854 7.598-22.446 14.377-34.57 20.357-12.104 5.98-27.832 12.042-47.288 18.207-19.292 6.185-39.322 10.342-60.006 12.534v95.416c0 5.079-1.597 9.236-4.874 12.493-3.256 3.297-7.414 4.895-12.493 4.895h-73.359c-4.69 0-8.765-1.7-12.247-5.161-3.441-3.4-5.12-7.475-5.12-12.227v-97.772c-56.832-10.854-102.994-35.144-138.506-72.786s-53.248-81.469-53.248-131.441c0-14.848 1.536-28.959 4.649-42.394 3.031-13.414 6.881-25.477 11.366-36.127 4.526-10.67 10.957-21.217 19.313-31.498 8.335-10.342 16.22-19.21 23.613-26.604 7.434-7.455 17.101-15.135 29.041-23.101 11.96-7.987 22.2-14.418 30.679-19.292 8.499-4.833 19.825-10.486 33.976-16.732 14.111-6.39 25.252-11.080 33.341-14.418 8.192-3.215 19.313-7.782 33.464-13.578 19.538-7.557 34.058-13.455 43.459-17.613 9.462-4.198 21.361-9.953 35.86-17.408 14.459-7.393 25.108-14.193 31.826-20.398 6.697-6.164 12.8-13.763 18.207-22.712 5.427-9.052 8.11-18.678 8.11-28.774 0-28.631-11.080-50.708-33.362-66.232-22.303-15.585-48.128-23.368-77.455-23.368-13.353 0-26.788 1.413-40.141 4.362-47.104 9.441-91.075 32.051-131.973 67.891l-1.085 1.085c-3.277 3.994-7.66 5.55-13.046 4.874-5.775-0.717-9.953-2.929-12.513-6.533l-55.972-73.318c-5.448-7.188-5.079-14.664 1.085-22.262 1.802-2.212 5.018-5.448 9.544-9.81 4.506-4.383 12.943-11.080 25.211-20.398 12.329-9.155 25.702-17.879 40.202-26.030 14.479-8.131 32.87-16.22 55.153-24.228 22.282-7.967 45.343-13.558 69.222-16.753v-95.048c0-4.751 1.72-8.827 5.12-12.308 3.441-3.461 7.537-5.222 12.206-5.222h73.318c5.079 0 9.236 1.679 12.554 4.895 3.236 3.215 4.874 7.455 4.874 12.493v95.13c57.59 9.359 104.366 34.14 140.37 74.076 36.024 39.956 54.047 87.757 54.047 143.114 0 18.084-2.273 35.123-7.107 51.139z" />
<glyph unicode="&#xe947;" d="M548.598-53.76h-73.318c-7.25 0-13.967 2.785-19.374 8.049-5.53 5.632-8.233 12.227-8.233 19.64v86.159c-21.361 3.482-42.332 8.868-62.423 15.995-22.774 8.11-41.861 16.527-56.75 24.924-14.52 8.172-28.406 17.203-41.288 26.788-13.926 10.568-21.75 16.855-26.235 21.217-4.936 4.772-8.397 8.274-10.363 10.67-9.114 11.284-9.605 23.982-1.311 34.918l55.992 73.359c2.703 3.871 8.54 9.155 19.436 10.486 8.581 1.126 16.732-1.884 22.2-8.561 39.26-34.324 82.084-56.381 127.14-65.393 39.875-8.765 79.729-3.645 109.732 17.388 19.497 13.619 28.979 32.543 28.979 57.836 0 8.131-2.253 16.056-6.697 23.491-4.874 8.11-10.383 14.991-16.323 20.439-5.98 5.55-15.913 11.837-29.553 18.883-14.213 7.25-26.010 12.964-35.328 17.080-9.318 4.137-23.675 9.994-43.008 17.49-14.275 5.857-25.354 10.404-33.505 13.599-8.315 3.441-19.558 8.172-33.812 14.623-14.316 6.39-26.071 12.186-34.877 17.244-8.643 4.977-19.087 11.51-31.252 19.661-12.698 8.479-22.692 16.445-30.638 24.392-7.578 7.557-15.77 16.773-24.33 27.402-8.868 10.916-15.872 22.344-20.767 33.915-4.833 11.448-8.847 24.187-11.94 37.847-3.256 13.988-4.895 29.020-4.895 44.646 0 52.47 18.842 99.041 56.033 138.486 35.123 37.233 80.753 62.136 135.721 74.117v89.395c0 7.496 2.826 14.234 8.172 19.517 5.284 5.304 12.022 8.11 19.436 8.11h73.359c7.782 0 14.623-2.724 19.784-7.905 5.12-5.1 7.885-11.94 7.885-19.722v-86.385c18.166-2.437 35.922-6.41 52.879-11.858 19.845-6.308 36.209-12.616 48.681-18.78 12.616-6.226 24.678-13.332 35.84-21.135 12.083-8.479 18.719-13.435 22.2-16.589 3.359-2.97 6.246-5.632 8.52-7.926 9.482-10.076 10.957-22.077 4.321-33.178l-43.909-78.991c-4.465-8.335-11.837-13.373-20.787-13.988-0.43-0.184-2.294-0.389-4.157-0.389-6.083 0-11.96 2.109-17.408 6.267-2.15 2.048-4.526 3.85-8.069 6.656-3.973 3.092-10.772 7.68-20.316 13.783-9.523 6.042-19.845 11.674-30.638 16.753-10.588 4.915-23.613 9.441-38.83 13.476-14.807 3.912-29.491 5.919-43.745 5.919-32.072 0-58.388-7.229-78.213-21.463-19.046-13.64-28.303-30.638-28.303-51.958 0-8.11 1.331-15.626 3.953-22.364 2.519-6.492 7.025-12.8 13.414-18.76 7.352-6.82 14.254-12.575 20.5-17.121 6.246-4.567 15.892-9.892 28.692-15.852 13.476-6.287 24.228-11.1 32.461-14.52 8.253-3.359 20.849-8.294 37.765-14.787 19.231-7.27 33.956-13.005 44.196-17.203 10.609-4.362 24.637-10.854 41.882-19.313 17.49-8.499 31.764-16.527 42.312-23.859 10.199-7.004 21.606-16.138 34.734-27.935 13.292-12.042 23.654-24.515 30.781-37.11 6.963-12.308 13.005-26.952 17.981-43.663 4.956-16.548 7.516-34.652 7.578-53.965 0-57.836-19.087-108.278-56.689-149.996-35.758-39.67-82.084-65.147-137.81-75.817v-86.548c0-7.782-2.744-14.623-7.905-19.784-5.12-5.1-11.94-7.803-19.558-7.803zM328.376 258.191c-3.912-0.43-5.714-1.229-6.533-2.335l-56.218-73.667c-1.864-2.478-3.011-4.751 0.901-9.646 1.638-2.007 4.588-4.874 8.724-8.909 3.809-3.748 11.305-9.789 24.289-19.579 12.104-8.97 25.272-17.49 39.055-25.293 13.865-7.823 31.887-15.729 53.576-23.47 21.524-7.68 44.114-13.189 67.154-16.282l8.868-1.249v-103.916c0-2.089 0.635-3.564 2.191-5.12 1.434-1.372 2.97-2.109 4.915-2.109h73.318c2.335 0 3.973 0.573 5.468 2.068 0.737 0.717 1.761 2.13 1.761 5.161v103.752l8.602 1.352c54.845 8.97 100.106 32.809 134.431 70.881 34.099 37.868 51.405 83.681 51.405 136.233-0.061 17.285-2.314 33.485-6.717 48.189-4.547 15.176-9.953 28.488-16.159 39.424-6.042 10.67-14.991 21.422-26.706 31.99-12.268 10.998-23.265 19.845-32.625 26.235-9.81 6.758-23.142 14.254-39.711 22.323-16.835 8.274-30.515 14.582-40.673 18.78-10.035 4.137-24.596 9.789-43.725 16.998-17.162 6.554-29.86 11.551-38.298 14.991-8.499 3.543-19.538 8.458-33.321 14.909-14.008 6.513-24.801 12.513-32.113 17.859-6.984 5.079-14.316 11.182-22.385 18.678-8.684 8.090-14.93 16.957-18.596 26.358-3.543 9.114-5.325 19.128-5.325 29.778 0 28.017 12.39 51.098 36.864 68.608 23.368 16.773 53.699 25.293 90.132 25.293 15.995 0 32.502-2.212 49.029-6.595 16.302-4.342 30.474-9.277 42.209-14.705 11.612-5.468 22.692-11.51 32.973-18.022 10.301-6.574 17.613-11.551 21.975-14.95 4.71-3.748 7.68-6.205 8.929-7.496 1.577-1.044 3.277-1.044 3.85-1.044l2.785 0.348c1.004 0.061 2.478 0.164 4.157 3.318l44.114 79.442c1.72 2.826 2.437 4.772-1.27 8.704-1.843 1.823-4.424 4.198-7.434 6.902-4.116 3.707-16.343 12.268-20.316 15.073-10.281 7.188-21.443 13.763-33.157 19.538-11.53 5.693-26.931 11.633-45.793 17.633-18.514 5.939-38.031 9.994-57.999 12.104l-9.155 0.963v104.653c0 2.99-0.942 4.321-1.864 5.243-0.963 0.963-2.294 1.905-5.304 1.905h-73.359c-2.007 0-3.461-0.635-4.997-2.171-1.516-1.495-2.13-2.929-2.13-4.977v-106.25l-8.335-1.536c-54.374-10.383-99.103-33.853-132.977-69.755-33.485-35.492-50.463-77.353-50.463-124.416 0-14.070 1.475-27.546 4.383-40.079 2.847-12.554 6.472-24.125 10.834-34.468 4.137-9.789 10.138-19.558 17.818-29.020 8.11-10.076 15.811-18.76 22.897-25.805 6.881-6.922 16.138-14.254 27.505-21.852 11.735-7.823 21.791-14.152 30.106-18.944 8.192-4.69 19.313-10.199 33.034-16.282 14.029-6.349 25.068-10.998 33.075-14.316 8.069-3.133 19.231-7.741 33.444-13.558 19.558-7.557 34.222-13.558 43.725-17.736 9.585-4.239 21.647-10.117 36.332-17.592 15.524-8.008 26.644-15.155 34.079-21.975 7.332-6.758 14.090-15.176 20.050-25.068 6.39-10.67 9.626-22.118 9.626-34.038 0-32.010-12.698-57.119-37.745-74.67-23.941-16.691-51.958-25.17-83.313-25.17-14.131 0-28.365 1.556-42.332 4.628-48.456 9.708-94.454 33.341-136.54 70.226l-1.556 1.475c-1.536 1.761-2.171 2.048-3.441 2.048z" />
<glyph unicode="&#xe948;" d="M523.878 750.715h-415.58v-769.27h602.604v582.267z" />
<glyph unicode="&#xe949;" d="M731.382-39.035h-643.564v810.23h444.539l199.025-199.004v-611.226zM128.778 1.925h561.644v553.308l-175.022 175.002h-386.621v-728.31z" />
<glyph unicode="&#xe94a;" d="M731.116 560.189h-227.738l-1.823 211.743 229.56-211.743zM523.674 580.669h155.034l-156.283 144.159 1.249-144.159z" />
<glyph unicode="&#xe94b;" d="M626.278 832.635h-415.58v-769.27h602.604v582.267z" />
<glyph unicode="&#xe94c;" d="M833.782 42.885h-643.564v810.23h444.539l199.025-199.004v-611.226zM231.178 83.845h561.644v553.308l-175.022 175.002h-386.621v-728.31z" />
<glyph unicode="&#xe94d;" d="M833.516 642.109h-227.758l-1.802 211.743 229.56-211.743zM626.074 662.589h155.034l-156.262 144.159 1.229-144.159z" />
<glyph unicode="&#xe94e;" d="M734.433 912.036h-415.58v-769.27h602.604v582.246z" />
<glyph unicode="&#xe94f;" d="M941.937 122.286h-643.564v810.23h444.559l199.025-199.025v-611.205zM339.333 163.246h561.644v553.288l-175.022 175.022h-386.621v-728.31z" />
<glyph unicode="&#xe950;" d="M941.67 721.49h-227.758l-1.802 211.743 229.56-211.743zM734.249 741.97h155.034l-156.283 144.159 1.249-144.159z" />
<glyph unicode="&#xe951;" d="M368.456 653.476h250.368v-24.617h-250.368v24.617z" />
<glyph unicode="&#xe952;" d="M368.456 592.036h504.812v-24.637h-504.812v24.637z" />
<glyph unicode="&#xe953;" d="M368.456 530.596h504.812v-24.637h-504.812v24.637z" />
<glyph unicode="&#xe954;" d="M636.6 469.156h236.687v-24.637h-236.687v24.637z" />
<glyph unicode="&#xe955;" d="M636.6 223.396h236.687v-24.637h-236.687v24.637z" />
<glyph unicode="&#xe956;" d="M537.231 223.396h90.276v-24.637h-90.276v24.637z" />
<glyph unicode="&#xe957;" d="M368.456 858.276h90.276v-24.637h-90.276v24.637z" />
<glyph unicode="&#xe958;" d="M794.296 892.334h-559.493l-200.253-515.645c137.38-427.049 937.82-281.969 960 0l-200.253 515.645z" />
<glyph unicode="&#xe959;" d="M491.991 97.833c-0.020 0-0.020 0-0.041 0-236.974 0.020-411.607 103.096-467.149 275.702l-1.106 3.461 204.104 525.578h573.501l203.653-524.37-0.205-2.314c-13.066-166.339-275.681-278.057-512.758-278.057zM45.425 376.381c53.903-161.649 220.488-258.048 446.525-258.068 0.020 0 0.041 0 0.061 0 280.596 0 480.051 132.383 492.155 256.881l-196.854 506.88h-545.505l-196.383-505.692z" />
<glyph unicode="&#xe95a;" d="M258.99 818.36h508.6v-433.5h-508.6v433.5z" />
<glyph unicode="&#xe95b;" d="M777.83 374.62h-529.080v453.98h529.080v-453.98zM269.23 395.1h488.12v413.020h-488.12v-413.020z" />
<glyph unicode="&#xe95c;" d="M204.37 675h617.82v-433.5h-617.82v433.5z" />
<glyph unicode="&#xe95d;" d="M832.43 231.26h-638.3v453.98h638.3v-453.98zM214.61 251.74h597.34v413.020h-597.34v-413.020z" />
<glyph unicode="&#xe95e;" d="M127.57 490.68h771.42v-433.5h-771.42v433.5z" />
<glyph unicode="&#xe95f;" d="M909.23 46.94h-791.9v453.98h791.9v-453.98zM137.81 67.42h750.94v413.020h-750.94v-413.020z" />
<glyph unicode="&#xe960;" d="M857.354 377.897c0.143-4.956 0.246-9.933 0.246-15.012 0-95.13-24.924-172.155-55.685-172.155h-574.73c-30.74 0-55.685 77.087-55.685 172.155 0 5.079 0.102 10.056 0.246 15.012h-146.145v-381.747h977.92v381.747h-146.166z" />
<glyph unicode="&#xe961;" d="M1013.76-14.070h-998.4v402.227h166.932l-0.307-10.547c-0.143-4.854-0.246-9.748-0.246-14.725 0-98.836 26.911-161.915 45.445-161.915h574.73c18.514 0 45.445 63.078 45.445 161.915 0 4.977-0.102 9.851-0.246 14.746l-0.307 10.527h166.953v-402.227zM35.84 6.41h957.44v361.267h-125.46c0.020-1.577 0.020-3.174 0.020-4.772 0-90.644-22.63-182.395-65.925-182.395h-574.73c-43.274 0-65.925 91.75-65.925 182.395 0 1.597 0 3.195 0.020 4.772h-125.44v-361.267z" />
<glyph unicode="&#xe962;" glyph-name="rebate" data-tags="Rebate Management" d="M511.898 153.313c162.57 0 294.666 131.85 294.666 294.687 0 162.591-131.871 294.666-294.666 294.666-84.849 0-161.341-35.942-215.040-93.204-49.316-52.675-79.626-123.515-79.626-201.257 0-163 132.076-294.892 294.666-294.892zM409.088 331.407c2.703 9.605 5.222 19.415 8.356 28.836 3.543 11.059 6.472 12.513 16.712 7.086 17.551-9.134 35.942-14.152 55.378-16.65 12.534-1.454 24.863-0.266 36.352 4.772 21.75 9.4 25.088 34.509 6.676 49.766-6.267 5.222-13.373 8.97-20.685 12.124-19.026 8.356-38.871 14.643-56.648 25.498-29.041 17.347-47.636 41.37-45.343 76.698 2.519 40.12 25.088 64.983 61.87 78.377 15.053 5.427 15.258 5.222 15.258 21.094 0 5.448 0 10.67 0 16.097 0.205 11.919 2.294 14.008 14.213 14.418 3.768 0.205 7.311 0 11.080 0 25.293 0 25.293 0 25.498-25.293 0-17.961 0-17.961 18.002-20.685 13.558-2.089 26.726-6.062 39.281-11.694 6.881-3.133 9.605-7.946 7.516-15.258-3.113-10.854-6.083-21.934-9.626-32.809-3.338-10.24-6.451-11.694-16.302-6.881-19.845 9.605-40.53 13.578-62.28 12.329-5.632-0.205-11.284-1.044-16.712-3.359-18.801-8.151-21.934-29.041-5.857-42.004 8.151-6.472 17.347-11.284 26.952-15.258 16.732-6.881 33.444-13.578 49.336-22.364 50.565-27.996 64.164-91.3 28.59-134.595-12.984-15.708-29.635-26.092-49.070-31.56-8.602-2.273-12.37-6.881-11.919-15.708 0.43-8.765 0-17.347 0-26.092 0-7.721-3.953-11.919-11.694-12.124-9.4-0.225-18.801-0.225-28.017 0-8.151 0.205-12.124 4.772-12.124 12.759 0 6.287-0.205 12.718-0.205 19.005-0.205 14.029-0.614 14.664-14.008 16.712-17.347 2.724-34.263 6.676-49.93 14.418-12.964 6.246-14.213 9.38-10.65 22.344zM830.996 190.116c-170.127-170.127-443.249-175.759-620.237-17.367h56.832v60.621h-161.321v-161.321h60.6v58.716c97.382-88.801 221.102-133.325 344.822-133.325 131.236 0 262.267 49.951 362.148 149.832l21.524 21.524-42.844 42.844-21.524-21.524zM856.924 823.951v-58.716c-97.382 88.822-221.102 133.325-344.822 133.325-131.236 0-262.267-49.951-362.168-149.832l-21.32-21.32 42.844-42.844 21.524 21.524c170.107 170.107 443.269 175.759 620.257 17.347h-56.832v-60.6h161.321v161.116h-60.805z" />
<glyph unicode="&#xe963;" horiz-adv-x="1043" d="M950.922 684.654l-19.397 25.523c-3.063 5.105-9.188 7.146-15.314 8.167-6.125 0-11.211-2.042-15.295-6.125l-115.38-114.341c-15.314-15.314-41.875-15.314-58.21 0l-72.484 72.484c-15.314 15.314-15.314 41.857 0 58.191l115.38 115.362c4.102 4.084 6.107 10.209 6.107 16.334s-3.026 11.211-8.149 15.295l-19.397 13.29c-61.273 44.92-142.945 44.92-204.199 1.021l-47.982-34.711c-75.547-54.108-110.276-150.072-86.795-238.909l12.251-48.001-322.623-323.625c-56.15-56.15-56.15-147.047 0-202.194 27.546-27.546 64.317-41.838 101.069-41.838 36.734 0 73.505 14.293 101.069 41.838l323.644 323.681 52.084-15.314c91.881-26.543 189.887 8.167 245.035 85.756l31.648 43.899c42.859 60.252 41.838 143.965-3.063 204.217z" />
<glyph unicode="&#xe964;" horiz-adv-x="1043" d="M200.505-17.967c-42.544 0-84.159 17.262-114.192 47.277-30.423 29.866-47.351 70.071-47.555 113.116-0.204 43.527 16.687 84.475 47.555 115.343l315.161 316.126-9.634 37.773c-25.411 96.132 12.325 200.115 93.96 258.585l47.927 34.655c33.207 23.778 72.020 36.325 112.373 36.325 41.003 0 80.298-12.938 113.691-37.402l18.914-12.938c10.859-8.594 16.223-19.174 16.223-30.627 0-11.397-4.214-22.144-11.564-29.476l-115.362-115.343c-8.056-8.576-8.223-23.703 0-31.926l72.484-72.502c7.815-7.276 24.075-7.889 31.963 0l115.436 114.397c7.555 7.518 17.392 11.508 28.362 11.508l3.063-0.26c4.826-0.798 19.23-3.211 27.509-15.87l18.914-24.891c49.542-66.47 50.897-159.409 3.434-226.194l-31.722-44.010c-45.495-64.001-119.501-102.294-197.906-102.294 0 0 0 0-0.037 0-22.738 0.019-45.347 3.23-67.287 9.559l-41.616 12.232-315.904-315.885c-30.052-30.052-71.686-47.277-114.192-47.277zM646.063 904.073c-32.539 0-63.89-10.135-90.674-29.328l-47.908-34.636c-69.254-49.597-101.255-137.654-79.723-219.141l14.887-58.377-330.066-331.087c-23.815-23.815-36.845-55.37-36.697-88.93 0.148-33.040 13.142-63.89 36.548-86.925 23.239-23.239 55.296-36.511 88.057-36.511 32.743 0 64.799 13.272 87.946 36.4l331.44 331.458 62.646-18.432c18.488-5.327 37.662-8.093 56.911-8.093v0c66.414 0 129.135 32.446 167.743 86.795l31.722 44.010c38.219 53.699 37.049 128.689-2.896 182.24l-19.508 25.671c-0.353 0.111-0.835 0.278-1.522 0.427-0.483-0.111-0.724-0.334-1.021-0.613l-115.399-114.378c-21.569-21.569-61.124-21.773-83.955-0.353l-72.929 72.911c-22.553 22.515-22.757 60.215-0.408 84.011l115.789 115.789c0.186 0.26 0.668 1.466 0.668 3.211l-19.397 13.309c-27.49 20.121-59.212 30.571-92.252 30.571z" />
<glyph unicode="&#xe965;" horiz-adv-x="1043" d="M225.006 196.627l-38.813-38.794c-8.167-8.167-8.167-20.418 0-28.604 4.084-4.065 9.188-6.107 14.311-6.107 5.086 0 10.209 2.042 14.293 6.107l38.794 38.813c8.167 8.167 8.167 20.437 0 28.585s-20.418 8.149-28.585 0z" />
<glyph unicode="&#xe966;" horiz-adv-x="1043" d="M200.505 113.841c-7.74 0-15.128 3.137-20.863 8.817-11.898 11.935-11.898 29.847-0.019 41.746l38.813 38.794c11.378 11.378 30.274 11.434 41.708 0 11.694-11.675 11.713-29.996 0-41.708l-38.794-38.813c-5.717-5.698-13.123-8.835-20.845-8.835zM239.299 193.471c-2.821 0-5.494-1.169-7.74-3.415l-38.813-38.794c-4.548-4.548-4.548-10.933 0-15.499 4.399-4.343 11.026-4.381 15.481 0.037l38.776 38.794c4.548 4.548 4.548 10.914 0 15.462-2.209 2.227-4.882 3.415-7.703 3.415z" />
<glyph unicode="&#xe967;" d="M123.576 937.82h781.824v-981.238h-781.824v981.238z" />
<glyph unicode="&#xe968;" d="M136.643 946.565h166.4v-996.987h-166.4v996.987z" />
<glyph unicode="&#xe969;" d="M105.882 946.278h35.389v-996.557h-35.389v996.557z" />
<glyph unicode="&#xe96a;" d="M971.919-29.798l-91.525-20.48v996.557l91.525-20.48z" />
<glyph unicode="&#xe96b;" d="M52.961 200.847c9.748 0 17.654 7.885 17.654 17.633 0 29.204 23.757 52.961 52.961 52.961s52.961-23.757 52.961-52.961c0-9.769 7.905-17.633 17.654-17.633s17.654 7.885 17.654 17.633c0 48.681-39.608 88.289-88.269 88.289-48.681 0-88.289-39.608-88.289-88.289 0.020-9.769 7.926-17.633 17.674-17.633z" />
<glyph unicode="&#xe96c;" d="M52.961 306.77c9.748 0 17.654 7.905 17.654 17.633 0 29.245 23.757 52.982 52.961 52.982s52.961-23.736 52.961-52.982c0-9.769 7.905-17.633 17.654-17.633s17.654 7.905 17.654 17.633c0 48.681-39.608 88.289-88.269 88.289-48.681 0-88.289-39.608-88.289-88.289 0.020-9.769 7.926-17.633 17.674-17.633z" />
<glyph unicode="&#xe96d;" d="M52.961 412.672c9.748 0 17.654 7.905 17.654 17.633 0 29.204 23.757 52.961 52.961 52.961s52.961-23.757 52.961-52.961c0-9.769 7.905-17.633 17.654-17.633s17.654 7.905 17.654 17.633c0 48.681-39.608 88.31-88.269 88.31-48.681 0-88.289-39.608-88.289-88.31 0.020-9.728 7.926-17.633 17.674-17.633z" />
<glyph unicode="&#xe96e;" d="M52.961 518.615c9.748 0 17.654 7.885 17.654 17.654 0 29.204 23.757 52.961 52.961 52.961s52.961-23.757 52.961-52.961c0-9.769 7.905-17.654 17.654-17.654s17.654 7.885 17.654 17.654c0 48.66-39.608 88.269-88.269 88.269-48.681 0-88.289-39.608-88.289-88.269 0.020-9.769 7.926-17.654 17.674-17.654z" />
<glyph unicode="&#xe96f;" d="M70.615 642.212c0 29.204 23.757 52.961 52.961 52.961s52.961-23.757 52.961-52.961c0-9.769 7.905-17.654 17.654-17.654s17.654 7.885 17.654 17.654c0 48.66-39.608 88.269-88.269 88.269-48.681 0-88.289-39.608-88.289-88.269 0-9.769 7.905-17.654 17.654-17.654 9.769 0 17.674 7.885 17.674 17.654z" />
<glyph unicode="&#xe970;" d="M918.118 959.939l-812.196 0.061v-125.379c-40.223-8.212-70.615-43.848-70.615-86.487 0-9.789 7.905-17.654 17.654-17.654s17.654 7.885 17.654 17.654c0 29.204 23.757 52.961 52.961 52.961s52.961-23.757 52.961-52.961c0-9.789 7.905-17.654 17.654-17.654s17.654 7.885 17.654 17.654c0 42.639-30.372 78.275-70.615 86.487v90.071h158.904v-953.364h-158.904v123.576c0 9.789-7.905 17.654-17.654 17.654s-17.654-7.926-17.654-17.654v-32.051c-20.5 7.311-35.308 26.747-35.308 49.746 0 29.204 23.757 52.961 52.961 52.961s52.961-23.757 52.961-52.961c0-9.789 7.905-17.654 17.654-17.654s17.654 7.926 17.654 17.654c0 48.681-39.608 88.31-88.269 88.31-48.681 0-88.289-39.629-88.289-88.31 0-42.639 30.392-78.275 70.615-86.508v-90.092h812.196c38.892 0 70.533 31.662 70.533 70.554v882.831c0.041 38.892-31.601 70.554-70.513 70.554zM335.442-28.672v953.283h423.711v-953.283h-423.711zM794.481-28.672v953.283h52.961v-953.283h-52.961zM953.385 6.554c0-19.436-15.811-35.246-35.267-35.246h-35.369v953.303h35.369c19.436 0 35.267-15.79 35.267-35.246v-882.811z" />
<glyph unicode="&#xe971;" glyph-name="fwa" data-tags="FWA2" horiz-adv-x="1038" d="M348.175 498.805c42.311-24.404 96.432-9.937 120.855 32.411l47.375 82.099 47.375-82.099c16.416-28.436 46.095-44.26 76.767-44.26 14.983 0 30.195 3.822 44.184 11.849 42.33 24.461 56.816 78.583 32.354 120.893l-124.085 214.822c-15.747 27.385-44.986 44.26-76.576 44.26s-60.791-16.894-76.614-44.26l-124.047-214.822c-24.423-42.311-9.918-96.432 32.411-120.893zM703.325 316.338l47.375-82.080h-123.034c-48.904 0-88.501-39.616-88.501-88.501s39.597-88.501 88.501-88.501h276.319c31.571 0 60.81 16.875 76.633 44.241s15.824 61.020 0 88.463l-123.989 214.726c-24.481 42.387-78.563 56.892-120.893 32.45-42.292-24.404-56.854-78.487-32.411-120.798zM128.881 57.275h257.132c48.885 0 88.501 39.597 88.501 88.501 0 48.866-39.616 88.501-88.501 88.501h-103.885l47.375 82.080c24.442 42.292 9.937 96.413-32.392 120.855-42.311 24.423-96.432 9.937-120.893-32.45l-123.989-214.764c-15.804-27.462-15.804-61.077 0-88.501 15.824-27.347 45.024-44.222 76.652-44.222z" />
<glyph unicode="&#xe972;" d="M543.724 149.688h-256.389l-137.687-131.85v131.85h-58.388c-41.021 0-74.527 33.485-74.527 74.506v276.234c0 41.021 33.505 74.506 74.527 74.506h452.465c41.021 0 74.506-33.485 74.506-74.506v-276.255c0-41.021-33.485-74.486-74.506-74.486z" />
<glyph unicode="&#xe973;" d="M596.869 224.707c0-30.331-24.699-54.825-54.825-54.825h-254.484c-4.813 0-9.626-1.905-13.189-5.243l-104.632-100.045v86.016c0 10.465-8.581 19.046-19.046 19.046h-57.754c-30.351 0-54.825 24.699-54.825 54.825v274.166c0 30.331 24.699 55.050 54.825 55.050l504.197 0.225c0-1.372 37.847 37.847 37.847 37.847h-542.065c-51.261 0-92.918-41.636-92.918-92.918v-274.166c0-51.261 41.656-92.918 92.918-92.918h38.932v-111.964c0-7.537 4.608-14.438 11.51-17.388 2.294-1.044 5.018-1.454 7.537-1.454 4.813 0 9.626 1.884 13.189 5.222l131.215 125.583h246.743c51.261 0 92.918 41.656 92.918 92.918v367.084l-38.154-37.847 0.061-329.216z" />
<glyph unicode="&#xe974;" d="M477.778 450.724h256.389l137.687-131.85v131.85h58.409c41.021 0 74.527 33.485 74.527 74.506v276.234c0 41.021-33.505 74.506-74.527 74.506h-452.485c-41.021 0-74.506-33.485-74.506-74.506v-276.255c0-41.001 33.485-74.486 74.506-74.486z" />
<glyph unicode="&#xe975;" d="M726.61 431.677l132.26-126.628c3.564-3.338 8.356-5.222 13.189-5.222 2.519 0 5.018 0.41 7.537 1.454 6.902 2.949 11.51 9.81 11.51 17.388v113.009h39.322c51.507 0 93.553 41.841 93.553 93.532v276.255c0 51.487-41.861 93.553-93.553 93.553h-452.649c-51.487 0-93.532-41.861-93.532-93.553v-276.255c0-51.487 41.841-93.532 93.532-93.532h248.832zM422.318 525.23v276.234c0 30.556 24.904 55.46 55.46 55.46h452.465c30.556 0 55.46-24.904 55.46-55.46v-276.255c0-30.556-24.904-55.46-55.46-55.46h-58.409c-10.445 0-19.046-8.581-19.046-19.046v-87.47l-105.677 101.089c-3.564 3.359-8.151 5.243-13.189 5.243h-256.143c-30.556 0-55.46 24.904-55.46 55.665z" />
<glyph unicode="&#xe976;" d="M704 640.532c5.038 0 9.83 2.089 13.394 5.652 3.564 3.543 5.652 8.376 5.652 13.394s-2.109 9.83-5.652 13.394c-3.564 3.564-8.356 5.652-13.394 5.652-4.997 0-9.81-2.089-13.373-5.652-3.564-3.543-5.652-8.376-5.652-13.394s2.109-9.83 5.652-13.394c3.564-3.768 8.376-5.652 13.373-5.652z" />
<glyph unicode="&#xe977;" d="M774.758 640.532c4.997 0 9.83 2.089 13.373 5.652 3.564 3.543 5.652 8.376 5.652 13.394s-2.109 9.83-5.652 13.394c-3.543 3.564-8.376 5.652-13.373 5.652-5.038 0-9.83-2.089-13.394-5.652-3.564-3.543-5.652-8.376-5.652-13.394s2.109-9.83 5.652-13.394c3.338-3.768 8.356-5.652 13.394-5.652z" />
<glyph unicode="&#xe978;" d="M633.487 640.532c5.038 0 9.83 2.089 13.394 5.652 3.564 3.543 5.632 8.376 5.632 13.394s-2.089 9.83-5.632 13.394c-3.564 3.564-8.356 5.652-13.394 5.652-5.018 0-9.83-2.089-13.394-5.652-3.564-3.543-5.632-8.376-5.632-13.394s2.089-9.83 5.632-13.394c3.543-3.768 8.376-5.652 13.394-5.652z" />
<glyph unicode="&#xe979;" d="M886.088 393.073c0-236.872-192-428.892-428.872-428.892s-428.913 192.020-428.913 428.892c0 235.397 189.645 426.496 424.468 428.872 1.475 0 2.949 0 4.424 0v-428.872h428.892z" />
<glyph unicode="&#xe97a;" d="M457.196-56.3c-247.788 0-449.372 201.605-449.372 449.372 0 245.289 199.516 446.853 444.744 449.352h25.129v-428.872h428.872v-20.48c0-247.767-201.585-449.372-449.372-449.372zM436.716 800.993c-215.265-10.65-387.932-190.362-387.932-407.921 0-225.198 183.214-408.412 408.412-408.412 218.317 0 397.189 172.216 407.9 387.932h-428.38v428.401z" />
<glyph unicode="&#xe97c;" d="M564.019 936.182v0c237.65-0.020 430.244-192.635 430.244-430.244h-430.244v430.244z" />
<glyph unicode="&#xe97d;" d="M1014.743 485.458h-471.204v471.204h20.48c248.525-0.020 450.724-202.22 450.724-450.724v-20.48zM584.499 526.418h388.772c-10.363 209.654-179.098 378.388-388.772 388.772v-388.772z" />
<glyph unicode="&#xe97e;" d="M342.897 758.477l59.187-59.187c-59.781-59.843-59.781-157.225 0-217.129l-59.187-59.208c-92.426 92.57-92.426 243.036 0 335.524z" />
<glyph unicode="&#xe97f;" d="M283.73 363.848l-59.208-59.187c-76.39 76.37-118.456 177.992-118.456 286.065s42.066 209.715 118.456 286.126l59.208-59.187c-60.6-60.6-93.962-141.21-93.962-226.939 0-85.668 33.362-166.277 93.962-226.877z" />
<glyph unicode="&#xe980;" d="M647.045 482.161c29 29 44.954 67.584 44.954 108.564s-15.954 79.565-44.954 108.564l59.249 59.187c44.81-44.81 69.509-104.366 69.509-167.752 0-63.324-24.678-122.941-69.509-167.752l-59.249 59.187z" />
<glyph unicode="&#xe981;" d="M943.206 590.725c0-108.073-42.127-209.674-118.559-286.065l-59.249 59.187c60.641 60.6 94.044 141.23 94.044 226.939 0 85.75-33.403 166.339-94.044 226.939l59.249 59.187c76.472-76.472 118.559-178.053 118.559-286.188z" />
<glyph unicode="&#xe982;" d="M524.636 566.927c0 0-34.55-347.894-206.397-563.057h412.754c-171.868 215.163-206.356 563.057-206.356 563.057z" />
<glyph unicode="&#xe983;" d="M730.993-26.849h-412.754c-11.796 0-22.569 6.758-27.689 17.408s-3.686 23.265 3.686 32.502c164.27 205.681 199.496 543.519 199.823 546.918 1.556 15.708 14.787 27.668 30.577 27.668v0c15.79 0 29-11.96 30.556-27.668 0.348-3.4 35.758-341.565 199.803-546.918 7.352-9.216 8.806-21.852 3.686-32.502s-15.872-17.408-27.689-17.408zM378.45 34.591h292.332c-76.206 115.261-120.812 252.518-146.166 358.441-25.354-105.902-69.98-243.18-146.166-358.441z" />
<glyph unicode="&#xe984;" d="M608.42 591.749c0-46.272-37.511-83.784-83.784-83.784s-83.784 37.511-83.784 83.784c0 46.272 37.511 83.784 83.784 83.784s83.784-37.511 83.784-83.784z" />
<glyph unicode="&#xe985;" d="M579.864 269.301l43.444-43.444-226.272-226.272-43.444 43.444 226.272 226.272z" />
<glyph unicode="&#xe986;" d="M466.572 274.528l229.067-229.067-43.444-43.444-229.067 229.067 43.444 43.444z" />
<glyph unicode="&#xe987;" d="M756.101 888.934h-659.722c-17.551 0-31.785-14.234-31.785-31.785v-856.084c0-17.531 14.234-31.805 31.785-31.805h659.722c17.531 0 31.785 14.213 31.785 31.805v856.084c0 17.551-14.254 31.785-31.785 31.785z" />
<glyph unicode="&#xe988;" d="M756.101 888.934h-331.633v-919.675h331.633c17.531 0 31.785 14.213 31.785 31.805v856.084c0 17.551-14.254 31.785-31.785 31.785z" />
<glyph unicode="&#xe989;" d="M710.513 27.873h-572.109c-9.953 0-18.022 8.090-18.022 18.043v770.621c0 9.953 8.069 18.002 18.022 18.002h572.129c9.953 0 18.063-8.069 18.063-18.002v-770.601c-0.020-9.974-8.11-18.063-18.084-18.063z" />
<glyph unicode="&#xe98a;" d="M710.513 834.54h-284.979v-806.666h285.020c9.912 0 18.043 8.090 18.043 18.043v770.621c-0.020 9.933-8.11 18.002-18.084 18.002z" />
<glyph unicode="&#xe98b;" d="M558.326 793.58h-264.172c-9.359 0-16.957 7.598-16.957 16.957v109.486c0 9.359 7.598 16.957 16.957 16.957h264.172c9.4 0 16.957-7.598 16.957-16.957v-109.486c0-9.359-7.557-16.957-16.957-16.957z" />
<glyph unicode="&#xe98c;" d="M558.326 936.96h-132.792v-143.38h132.792c9.4 0 16.957 7.598 16.957 16.957v109.486c0 9.359-7.557 16.937-16.957 16.937z" />
<glyph unicode="&#xe98d;" d="M180.306 556.196h250.368v-24.617h-250.368v24.617z" />
<glyph unicode="&#xe98e;" d="M180.306 494.756h504.812v-24.637h-504.812v24.637z" />
<glyph unicode="&#xe98f;" d="M180.306 433.316h504.812v-24.637h-504.812v24.637z" />
<glyph unicode="&#xe990;" d="M180.306 371.876h372.961v-24.637h-372.961v24.637z" />
<glyph unicode="&#xe991;" d="M180.306 310.436h344.801v-24.637h-344.801v24.637z" />
<glyph unicode="&#xe992;" d="M180.306 760.996h90.276v-24.637h-90.276v24.637z" />
<glyph unicode="&#xe993;" d="M395.51 760.996h284.611v-24.637h-284.611v24.637z" />
<glyph unicode="&#xe995;" d="M805.417 416.727c-1.823 11.878-11.837 20.521-23.88 20.521h-48.026c-11.919 0-21.914-8.479-23.798-20.070l-7.578-44.646c-15.974-4.444-149.217-338.514-149.217-338.514-6.246-9.564-4.936-22.364 3.072-30.372l33.628-33.649c4.628-4.813 10.691-7.332 18.616-7.393l7.864 0.881 41.923 29.819c14.438-7.946 29.553-14.111 45.138-18.473l1.802-6.144h17.592l82.862 448.041z" />
<glyph unicode="&#xe996;" d="M986.010 151.327c0-1.352-0.963-2.56-2.355-2.806l-44.974-7.496c-5.652-0.963-10.179-5.12-11.571-10.629-4.035-15.729-10.281-30.843-18.596-44.831-2.908-4.915-2.683-11.039 0.635-15.749l26.44-37.274c0.717-1.044 0.635-2.662-0.328-3.625l-31.928-31.969c-0.758-0.717-1.516-0.84-2.068-0.84-0.614 0-1.188 0.205-1.577 0.532l-37.151 26.44c-4.608 3.338-10.813 3.543-15.77 0.635-14.049-8.335-29.143-14.541-44.872-18.616-5.55-1.352-9.728-6.001-10.609-11.551l-7.598-44.974c-0.225-1.372-1.372-2.335-2.806-2.335h-45.076c-1.352 0-2.56 0.963-2.785 2.335l-7.496 44.974c-0.963 5.673-5.12 10.199-10.609 11.551-15.299 3.953-30.126 10.076-43.93 17.981-2.232 1.29-4.792 1.946-7.25 1.946-2.908 0-5.898-0.84-8.356-2.683l-37.478-26.665c-0.532-0.348-1.085-0.532-1.618-0.532-0.43 0-1.27 0.082-2.028 0.84l-31.949 31.969c-0.963 0.963-1.085 2.437-0.328 3.625l26.337 36.946c3.338 4.69 3.543 10.957 0.655 15.852-8.356 13.926-14.807 29.041-18.883 44.79-1.475 5.489-6.001 9.646-11.551 10.609l-45.302 7.7c-1.372 0.266-2.335 1.413-2.335 2.806v45.097c0 1.352 0.963 2.56 2.335 2.785l44.708 7.496c5.632 0.963 10.24 5.12 11.633 10.67 3.953 15.77 10.076 30.966 18.33 44.974 2.908 4.915 2.56 11.039-0.717 15.626l-26.685 37.478c-0.758 1.085-0.635 2.724 0.328 3.686l31.928 31.908c0.737 0.758 1.495 0.881 2.048 0.881 0.635 0 1.188-0.225 1.597-0.532l36.966-26.358c4.69-3.297 10.916-3.523 15.811-0.594 13.947 8.315 29.041 14.787 44.79 18.821 5.489 1.516 9.667 6.001 10.629 11.571l7.7 45.322c0.246 1.331 1.393 2.314 2.806 2.314h45.076c1.393 0 2.601-0.983 2.806-2.314l7.475-44.687c0.963-5.673 5.161-10.281 10.691-11.674 16.179-4.055 31.601-10.404 45.937-18.842 4.915-2.929 11.039-2.683 15.77 0.614l36.966 26.583c0.512 0.328 1.044 0.532 1.597 0.532 0.43 0 1.27-0.143 2.048-0.881l31.928-31.908c0.942-1.004 1.085-2.458 0.328-3.686l-26.501-37.151c-3.318-4.628-3.523-10.813-0.614-15.749 8.335-14.070 14.541-29.143 18.575-44.872 1.393-5.55 6.042-9.728 11.571-10.609l44.974-7.598c1.393-0.225 2.355-1.372 2.355-2.806v-45.076h-0.082z" />
<glyph unicode="&#xe997;" d="M780.882-64h-45.076c-6.513 0-11.981 4.69-12.923 11.121l-7.434 44.769c-0.307 1.679-1.434 2.97-2.99 3.359-16.056 4.116-31.683 10.547-46.51 19.005-1.352 0.799-3.359 0.717-4.465-0.082l-40.284-28.652-4.895-0.532c-3.625 0-6.984 1.434-9.462 4.035l-31.724 31.764c-4.362 4.362-5.038 11.284-1.638 16.486l26.563 37.233c0.983 1.352 1.065 3.256 0.184 4.731-8.97 14.909-15.708 30.884-19.968 47.37-0.43 1.516-1.761 2.765-3.4 3.031l-45.281 7.7c-6.369 1.229-10.854 6.615-10.854 12.902v45.097c0 6.451 4.628 11.878 10.977 12.902l44.605 7.475c1.679 0.287 2.99 1.475 3.4 3.072 4.28 16.916 10.793 32.952 19.415 47.657 0.819 1.372 0.737 3.133-0.205 4.465l-26.747 37.519c-3.645 5.202-2.99 12.39 1.413 16.835l31.949 31.928c2.396 2.437 5.714 3.85 9.236 3.85h3.359l4.28-2.499 36.884-26.276c1.966-1.372 3.441-0.881 4.69-0.184 15.094 9.011 31.089 15.749 47.432 19.948 1.516 0.43 2.785 1.802 3.031 3.4l7.721 45.322c1.004 6.267 6.41 10.834 12.882 10.834h45.076c6.533 0 11.96-4.669 12.923-11.080l7.455-44.483c0.307-1.679 1.516-3.031 3.133-3.461 17.060-4.28 33.444-10.977 48.599-19.948 1.475-0.86 3.277-0.758 4.669 0.205l39.547 28.447 4.915 0.532c3.441 0 6.799-1.413 9.257-3.85l31.949-31.928c4.362-4.547 4.997-11.203 1.72-16.384l-26.788-37.601c-0.963-1.311-1.004-3.133-0.143-4.608 8.724-14.705 15.36-30.679 19.702-47.514 0.43-1.597 1.7-2.806 3.256-3.031l45.076-7.619c6.226-0.881 10.875-6.328 10.875-12.882v-55.296h-4.997c-1.72-1.352-3.809-2.314-6.083-2.703l-44.892-7.455c-1.618-0.307-2.949-1.475-3.338-3.031-4.362-16.876-10.998-32.85-19.743-47.555-0.84-1.393-0.778-3.195 0.205-4.608l26.46-37.253c3.604-5.202 2.97-12.37-1.434-16.773l-31.928-31.949c-2.58-2.519-5.837-3.85-9.277-3.85h-3.604l-4.444 2.847-36.639 26.030c-2.13 1.516-3.42 0.881-4.649 0.164-14.623-8.684-30.597-15.319-47.473-19.722-1.618-0.41-2.806-1.679-3.031-3.195l-7.619-45.117c-1.004-6.267-6.472-10.916-12.902-10.916zM742.072-43.52h32.543l6.533 38.81c1.475 9.605 8.643 17.449 18.268 19.804 14.909 3.85 29.102 9.789 42.086 17.49 8.417 4.956 19.251 4.506 27.013-1.167l31.99-22.733 23.040 23.081-22.835 32.154c-5.55 7.926-6.001 18.432-1.126 26.849 7.803 13.087 13.681 27.279 17.531 42.23 2.376 9.38 10.138 16.527 19.784 18.166l38.83 6.431 0.082 32.563-38.81 6.554c-9.605 1.516-17.449 8.643-19.804 18.207-3.85 14.93-9.769 29.102-17.49 42.168-5.038 8.499-4.608 19.087 1.126 26.952l22.753 31.99-23.081 23.040-31.785-22.876c-7.987-5.632-18.616-6.042-26.89-1.167-13.476 7.967-28.037 13.926-43.254 17.715-9.503 2.437-16.65 10.24-18.309 19.927l-6.451 38.482h-32.584l-6.615-39.117c-1.618-9.4-8.663-17.162-17.961-19.722-14.664-3.809-28.815-9.748-42.25-17.756-8.315-4.915-19.19-4.485-26.993 1.065l-31.846 22.692-23.081-23.040 23.040-32.399c5.612-7.844 6.124-18.35 1.249-26.747-7.66-13.025-13.435-27.259-17.244-42.291-2.355-9.441-10.158-16.63-19.886-18.309l-38.502-6.451v-32.563l39.117-6.636c9.441-1.618 17.183-8.684 19.743-17.961 3.809-14.766 9.769-28.918 17.756-42.23 4.997-8.52 4.567-19.128-1.126-27.075l-22.651-31.826 23.060-23.081 32.358 23.040c7.25 5.325 18.534 6.001 26.726 1.27 13.189-7.516 27.075-13.23 41.349-16.916 9.359-2.335 16.527-10.117 18.145-19.804l6.451-38.81z" />
<glyph unicode="&#xe998;" d="M758.395 92.221c-45.076 0-81.715 36.598-81.715 81.674 0 45.056 36.639 81.736 81.715 81.736s81.674-36.68 81.674-81.736c0.020-45.076-36.598-81.674-81.674-81.674v0z" />
<glyph unicode="&#xe999;" d="M758.395 81.981c-50.729 0-91.955 41.267-91.955 91.914 0 50.729 41.288 91.976 91.955 91.976s91.914-41.288 91.914-91.976c0.041-50.647-41.206-91.914-91.914-91.914zM758.395 245.391c-39.444 0-71.475-32.072-71.475-71.496s32.031-71.434 71.475-71.434c39.404 0 71.434 32.010 71.434 71.434 0.041 39.424-32.031 71.496-71.434 71.496z" />
<glyph unicode="&#xe99b;" d="M572.047 923.156h-513.393v-950.313h744.407v719.278z" />
<glyph unicode="&#xe99c;" d="M823.542-47.636h-785.367v991.273h542.331l243.016-243.016v-748.257zM79.135-6.676h703.447v690.319l-219.013 219.034h-484.434v-909.353z" />
<glyph unicode="&#xe99d;" d="M834.683 198.185l-63.242-50.606v357.335l63.242 50.606z" />
<glyph unicode="&#xe99e;" d="M819.753 675.963h-254.177l-2.15 266.26 256.328-266.26zM585.892 696.443h185.692l-187.31 194.56 1.618-194.56z" />
<glyph unicode="&#xe99f;" d="M850.81 508.98l37.801 31.222 121.222-146.769-37.801-31.222-121.222 146.769z" />
<glyph unicode="&#xe9a0;" d="M853.524 454.308l-189.194-156.467-11.407 13.742 189.174 156.467-16.527 20.029-271.77-224.748 121.385-146.739 271.688 224.809z" />
<glyph unicode="&#xe9a1;" d="M568.484 86.897l77.353 23.265-103.834 125.522-37.396-71.557z" />
<glyph unicode="&#xe9a2;" d="M488.182 132.69l-43.315-83.046 89.661 27.013z" />
<glyph unicode="&#xe9a3;" horiz-adv-x="1038" d="M983.524 189.979c-89.59 146.272-179.2 292.582-268.79 438.854-20.678 33.787-39.693 68.702-59.491 103.006-14.295 24.729-28.57 49.477-42.865 74.206-8.046 13.932-15.46 29.698-25.99 41.967-30.653 35.679-85.711 40.725-122.384 11.294-15.288-12.288-23.869-29.296-33.443-45.884-28.57-49.477-57.141-98.954-85.711-148.432-88.405-153.095-183.48-302.539-276.224-453.111-4.472-7.243-8.925-14.505-13.396-21.748-24.767-40.228-9.345-95.266 30.004-119.632 29.736-18.384 69.352-13.224 102.891-13.224 115.504 0 231.008 0 346.531 0 62.491 0 124.945-0.019 187.417-0.019 54.905 0 109.828 0 164.733 0 19.684 0 38.642-0.401 57.16 8.141 46.553 21.499 65.205 80.073 39.559 124.582z" />
<glyph unicode="&#xe9a4;" horiz-adv-x="1038" d="M150.362 47.051c-22.436 0-48.331 1.835-70.174 15.346-45.082 27.901-60.236 88.692-33.099 132.742l13.396 21.767c23.621 38.374 47.413 76.691 71.225 115.007 68.358 110.096 139.048 223.937 204.846 337.874l89.017 154.203c8.6 15.136 17.505 30.787 32.431 42.769 17.085 13.702 38.775 21.251 61.096 21.251 28.933 0 56.109-12.307 74.512-33.787 8.619-10.014 15.059-21.767 21.27-33.099 1.93-3.497 3.822-6.956 5.752-10.32l42.865-74.206c6.574-11.371 13.072-22.818 19.531-34.265 12.823-22.646 26.086-46.056 39.845-68.511l268.79-438.854c13.683-23.716 16.626-52.363 8.256-78.774-8.39-26.411-27.347-48.082-51.981-59.453-19.455-8.982-39.578-9.020-55.803-9.020-0.076 0-0.134 0-0.229 0h-703.803c-5.848 0-11.868-0.172-18.002-0.325-6.498-0.153-13.129-0.344-19.741-0.344zM519.1 868.9c-17.983 0-35.431-6.058-49.133-17.047-12.078-9.689-19.703-23.105-27.787-37.323l-89.074-154.318c-65.95-114.224-136.717-228.18-205.171-338.409-23.793-38.298-47.566-76.595-71.187-114.95l-13.396-21.767c-21.346-34.628-8.772-84.411 26.889-106.484 17.773-10.969 40.361-12.46 60.122-12.46 6.459 0 12.919 0.191 19.244 0.344 6.306 0.172 12.498 0.344 18.499 0.344l703.822-0.019c0.019 0 0.019 0 0.019 0 18.289 0 33.424 0.535 47.987 7.262 19.779 9.135 35.011 26.602 41.795 47.91 6.765 21.289 4.395 44.336-6.478 63.218l-268.675 438.625c-13.912 22.742-27.271 46.305-40.17 69.085-6.459 11.409-12.919 22.799-19.455 34.131l-42.865 74.206c-2.007 3.478-3.975 7.071-5.962 10.683-5.752 10.492-11.696 21.327-18.996 29.851-14.792 17.238-36.692 27.118-60.026 27.118z" />
<glyph unicode="&#xe9a5;" horiz-adv-x="1038" d="M498.193 282.34l-21.557 304.526v127.372h87.392v-127.372l-20.372-304.526h-45.464zM479.77 139.68v80.341h81.124v-80.341h-81.124z" />
<glyph unicode="&#xe9a6;" d="M862.413 401.060l-110.92-106.066 33.628-9.81c-48.189-79.217-135.311-114.074-234.557-120.914v401.756h92.037c7.68-7.721 18.289-12.431 30.085-12.431 23.368 0 42.353 18.903 42.353 42.353 0 23.429-19.005 42.414-42.353 42.414-11.653 0-22.303-4.772-30.085-12.513h-92.037v48.435c44.749 17.469 76.677 60.764 76.677 111.657 0.020 66.007-53.78 119.89-119.972 119.89-66.212 0-119.972-53.883-119.972-119.89 0-54.354 36.618-100.004 86.364-114.606v-45.425h-101.765c-7.7 7.68-18.33 12.452-30.044 12.452-23.388 0-42.414-18.985-42.414-42.414 0-23.45 19.026-42.353 42.414-42.353 11.715 0 22.323 4.71 30.044 12.431h101.765v-401.51c-104.55 7.823-195.83 48.517-241.644 134.349l33.485 7.373-103.67 113.029-46.162-146.309 39.096 8.745c57.139-125.174 187.392-225.997 334.479-235.766l22.835-46.244 22.794 46.141c139.899 9.38 264.438 101.356 326.021 217.211l37.929-11.1-36.413 149.115zM445.747 785.92c0 33.956 27.607 61.501 61.542 61.501s61.563-27.546 61.563-61.501-27.689-61.563-61.604-61.563c-33.956 0-61.501 27.607-61.501 61.563z" />
<glyph unicode="&#xe9a7;" d="M512.061-46.572l-36.065 73.032c-137.544 13.64-268.206 104.817-332.636 231.67l-57.938-12.943 67.564 214.016 151.634-165.335-39.977-8.806c47.063-65.434 123.658-89.887 188.539-97.956v358.441h-73.728c-10.793-8.069-23.859-12.431-37.601-12.431-34.673 0-62.894 28.18-62.894 62.833 0 34.673 28.201 62.894 62.894 62.894 13.681 0 26.747-4.362 37.581-12.452h73.748v10.527c-51.548 21.627-86.364 72.643-86.364 129.024 0 77.414 63.017 140.37 140.452 140.37 37.478 0 72.745-14.623 99.308-41.206 26.563-26.542 41.185-61.768 41.165-99.185 0-53.35-29.655-100.966-76.677-124.887v-14.705h64.020c10.854 8.11 23.921 12.513 37.622 12.513 34.652 0 62.833-28.201 62.833-62.894 0-34.652-28.18-62.833-62.833-62.833-13.804 0-26.87 4.362-37.663 12.431h-63.98v-358.83c81.142 9.318 141.804 38.441 180.9 86.815l-40.243 11.735 162.202 155.095 53.207-218.051-56.3 16.486c-68.69-117.699-192.758-199.475-322.703-212.419l-36.065-72.95zM166.502 305.275l6.881-15.094c57.078-125.071 184.566-215.020 317.215-223.826l11.776-0.778 9.687-19.64 9.646 19.517 11.756 0.799c125.747 8.417 247.153 89.436 309.33 206.397l7.823 14.725 19.886-5.816-19.558 80.179-59.638-57.016 25.19-7.332-13.885-22.815c-47.104-77.455-133.775-122.655-250.655-130.724l-21.873-1.495v444.15h121.037l6.001-6.042c4.096-4.137 9.646-6.39 15.565-6.39 12.063 0 21.873 9.81 21.873 21.873 0 12.083-9.81 21.934-21.873 21.934-5.837 0-11.407-2.335-15.647-6.554l-5.98-5.96h-120.975v82.903l13.046 5.1c38.666 15.094 63.631 51.446 63.631 92.59 0 26.46-10.342 51.405-29.164 70.226s-43.807 29.204-70.349 29.204c-54.866 0-99.492-44.605-99.492-99.41 0-43.52 29.471-82.575 71.66-94.945l14.705-4.321v-81.244h-130.703l-5.98 5.96c-4.219 4.198-9.748 6.492-15.606 6.492-12.083 0-21.934-9.83-21.934-21.934 0-12.063 9.83-21.873 21.934-21.873 5.878 0 11.407 2.273 15.544 6.431l6.001 6.001h130.744v-444.109l-22.016 1.638c-123.146 9.196-212.439 59.372-258.191 145.121l-12.718 23.818 25.17 5.55-55.685 60.703-24.801-78.602 20.623 4.608zM507.249 703.898c-21.893 0-42.496 8.54-57.979 24.064-15.483 15.483-24.003 36.086-24.003 57.979 0 45.199 36.803 81.981 82.022 81.981 45.24 0 82.043-36.782 82.043-81.981 0-45.24-36.803-82.043-82.084-82.043zM507.31 826.941c-22.651 0-41.062-18.391-41.062-41.021 0-22.651 18.391-41.083 41.001-41.083 22.692 0 41.144 18.432 41.144 41.083-0.020 22.63-18.452 41.021-41.083 41.021z" />
<glyph unicode="&#xe9a8;" d="M730.030 930.12h-513.331l-183.726-473.088c126.034-391.782 860.426-258.703 880.783 0l-183.726 473.088z" />
<glyph unicode="&#xe9a9;" d="M452.669 201.196c-0.020 0-0.020 0-0.041 0-217.416 0-377.631 94.556-428.605 252.948l-1.004 3.154 187.249 482.222h526.172l186.86-481.116-0.184-2.13c-12.001-152.596-252.928-255.078-470.446-255.078zM42.947 456.745c49.459-148.316 202.301-236.749 409.682-236.749 0.020 0 0.041 0 0.061 0 257.434 0 440.443 121.446 451.543 235.663l-180.613 465.060h-500.49l-180.183-463.974z" />
<glyph unicode="&#xe9aa;" d="M238.899 862.269h466.637v-397.722h-466.637v397.722z" />
<glyph unicode="&#xe9ab;" d="M714.916 455.127h-485.417v416.522h485.437v-416.522zM248.279 473.928h447.857v378.941h-447.857v-378.941z" />
<glyph unicode="&#xe9ac;" d="M188.764 730.726h566.845v-397.722h-566.845v397.722z" />
<glyph unicode="&#xe9ad;" d="M765.010 323.604h-585.626v416.522h585.646v-416.522zM198.164 342.405h548.045v378.921h-548.045v-378.921z" />
<glyph unicode="&#xe9ae;" d="M118.313 561.623h707.768v-397.742h-707.768v397.742z" />
<glyph unicode="&#xe9af;" d="M835.482 154.481h-726.569v416.522h726.569v-416.522zM127.713 173.281h688.968v378.941h-688.968v-378.941z" />
<glyph unicode="&#xe9b0;" d="M787.886 458.158c0.123-4.567 0.225-9.114 0.225-13.783 0-87.286-22.856-157.962-51.077-157.962h-527.34c-28.201 0-51.077 70.758-51.077 157.962 0 4.669 0.082 9.216 0.225 13.783h-134.083v-350.228h897.229v350.228h-134.103z" />
<glyph unicode="&#xe9b1;" d="M931.389 98.529h-916.029v369.029h153.17l-0.287-9.687c-0.123-4.444-0.225-8.95-0.225-13.496 0-90.685 24.699-148.562 41.697-148.562h527.319c16.978 0 41.677 57.876 41.677 148.562 0 4.567-0.082 9.032-0.225 13.537l-0.287 9.646h153.17v-369.029zM34.14 117.33h878.449v331.448h-115.098c0.020-1.454 0.020-2.929 0.020-4.362 0-83.169-20.787-167.363-60.477-167.363h-527.34c-39.69 0-60.477 84.193-60.477 167.363 0 1.434 0 2.908 0.020 4.362h-115.098v-331.448z" />
<glyph unicode="&#xe9b2;" d="M972.083 51.343c-46.612 76.104-93.245 152.228-139.858 228.311-10.752 17.572-20.664 35.758-30.966 53.596-7.414 12.861-14.889 25.764-22.323 38.625-4.157 7.25-8.049 15.462-13.517 21.852-15.933 18.555-44.605 21.176-63.672 5.857-7.967-6.39-12.39-15.237-17.408-23.88-14.868-25.723-29.716-51.466-44.605-77.23-45.998-79.667-95.478-157.43-143.729-235.786-2.335-3.768-4.649-7.537-6.984-11.325-12.882-20.91-4.854-49.562 15.606-62.239 15.462-9.564 36.086-6.902 53.535-6.902 60.129 0 120.238 0 180.326 0 32.543 0 65.044 0 97.526 0 28.59 0 57.139 0 85.709 0 10.26 0 20.132-0.225 29.757 4.239 24.228 11.223 33.935 41.697 20.603 64.881z" />
<glyph unicode="&#xe9b3;" d="M538.644-38.564c-13.087 0-29.983 1.188-44.769 10.301-30.597 18.964-40.796 60.355-22.282 90.399l7.004 11.366c12.39 20.111 24.883 40.264 37.396 60.375 35.41 57.016 72.008 115.958 106.004 174.858l46.346 80.241c4.936 8.684 10.547 18.514 20.562 26.583 11.653 9.339 26.399 14.5 41.513 14.5 19.579 0 37.99-8.376 50.545-22.979 5.55-6.492 9.503-13.701 12.984-20.050l35.287-61.46c6.676-11.817 13.373-23.654 20.46-35.226l139.858-228.311c9.503-16.507 11.53-35.942 5.837-53.842-5.673-17.879-18.555-32.563-35.328-40.305-13.23-6.124-26.132-6.124-35.574-6.124l-2.765 20.48v-20.48h-363.54c-2.908 0-5.878-0.082-8.929-0.164-3.502-0.061-7.045-0.164-10.609-0.164zM730.419 389.1c-5.837 0-11.489-1.946-15.852-5.468-3.932-3.174-7.045-8.622-10.629-14.93l-46.449-80.445c-34.345-59.453-71.127-118.702-106.68-175.985-12.472-20.070-24.965-40.182-37.335-60.293l-7.004-11.325c-6.656-10.813-2.376-27.054 8.97-34.099 8.274-5.1 21.627-4.28 32.768-3.994 3.4 0.102 6.738 0.184 9.974 0.184h366.305c7.803 0 13.701 0.164 18.371 2.335 6.39 2.949 11.284 8.602 13.476 15.544 2.212 6.963 1.475 14.438-2.028 20.5l-139.551 227.84c-7.332 11.981-14.254 24.228-21.197 36.434l-35.533 61.952c-2.765 5.038-5.386 9.81-8.151 13.066-4.731 5.509-11.837 8.684-19.456 8.684z" />
<glyph unicode="&#xe9b4;" d="M538.563-23.040c-11.674 0-25.17 0.963-36.516 8.008-23.47 14.5-31.355 46.121-17.244 69.038l6.984 11.325c12.288 19.968 24.678 39.916 37.048 59.863 35.574 57.303 72.356 116.511 106.598 175.8l46.326 80.241c4.485 7.885 9.093 16.015 16.876 22.241 8.888 7.148 20.152 11.080 31.785 11.080 15.053 0 29.184-6.41 38.789-17.572 4.485-5.222 7.823-11.325 11.080-17.224 0.983-1.823 1.987-3.645 2.99-5.386l22.303-38.605c3.42-5.919 6.799-11.878 10.179-17.838 6.656-11.776 13.558-23.962 20.726-35.656l139.878-228.352c7.107-12.329 8.643-27.238 4.28-40.98-4.383-13.763-14.213-25.027-27.034-30.945-10.117-4.69-20.582-4.69-29.041-4.69-0.041 0-0.061 0-0.123 0l-366.244 0.020c-3.011 0-6.185-0.082-9.359-0.164-3.4-0.123-6.84-0.205-10.281-0.205zM730.419 404.582c-9.359 0-18.432-3.133-25.559-8.868-6.308-5.038-10.26-12.042-14.459-19.415l-46.367-80.282c-34.324-59.433-71.148-118.743-106.742-176.087-12.37-19.948-24.76-39.875-37.069-59.843l-6.963-11.305c-11.1-18.022-4.567-43.95 14.008-55.419 9.257-5.693 21.012-6.451 31.293-6.451 3.359 0 6.697 0.082 9.994 0.184 3.277 0.061 6.492 0.143 9.626 0.143h366.244c0.020 0 0.020 0 0.020 0 9.523 0 17.388 0.287 24.965 3.789 10.301 4.731 18.207 13.824 21.75 24.924 3.523 11.080 2.294 23.081-3.379 32.891l-139.796 228.229c-7.229 11.837-14.152 24.125-20.91 35.963-3.359 5.919-6.717 11.858-10.097 17.756l-22.303 38.605c-1.044 1.823-2.109 3.707-3.113 5.571-2.99 5.468-6.103 11.080-9.851 15.524-7.762 8.97-19.149 14.090-31.293 14.090z" />
<glyph unicode="&#xe9b5;" d="M538.563-43.52c-13.722 0-31.478 1.27-47.309 11.080-32.87 20.296-43.827 64.819-23.9 97.178l7.004 11.346c12.288 19.968 24.699 39.936 37.089 59.904 35.697 57.508 72.294 116.429 106.25 175.247l46.326 80.241c4.874 8.581 10.998 19.333 21.832 27.996 12.452 10.015 28.303 15.565 44.564 15.565 20.992 0 40.796-8.991 54.292-24.699 5.775-6.738 9.789-13.988 13.292-20.337l35.533-61.952c6.554-11.592 13.332-23.572 20.357-35.062l139.878-228.352c10.24-17.736 12.431-38.666 6.349-57.876-6.124-19.21-19.968-35.021-37.97-43.336-14.234-6.574-28.303-6.574-37.622-6.574l-366.367 0.020c-2.826 0-5.775-0.082-8.765-0.164-3.564-0.143-7.188-0.225-10.834-0.225zM730.419 384.102c-4.71 0-9.236-1.536-12.739-4.342-3.215-2.58-6.083-7.619-9.4-13.435l-46.51-80.548c-34.447-59.638-71.291-119.030-106.947-176.415-12.554-20.234-24.904-40.1-37.151-60.006l-6.984-11.325c-5.202-8.438-1.638-21.688 7.332-27.238 4.874-3.011 13.517-3.4 20.521-3.4 3.154 0 6.287 0.082 9.38 0.184l10.24 0.143h366.244c8.315 0 12.902 0.287 16.404 1.905 5.079 2.335 8.991 6.902 10.793 12.534 1.782 5.591 1.208 11.592-1.577 16.425l-139.53 227.779c-6.717 11.018-13.189 22.385-19.476 33.444l-37.478 65.393c-2.171 3.994-4.915 9.011-7.475 12.042-3.727 4.321-9.462 6.861-15.647 6.861z" />
<glyph unicode="&#xe9b6;" d="M972.083 51.343c-46.612 76.104-93.245 152.228-139.858 228.311-10.752 17.572-20.664 35.758-30.966 53.596-7.414 12.861-14.889 25.764-22.323 38.625-4.157 7.25-8.049 15.462-13.517 21.852-15.933 18.555-44.605 21.176-63.672 5.857-7.967-6.39-12.39-15.237-17.408-23.88-14.868-25.723-29.716-51.466-44.605-77.23-45.998-79.667-95.478-157.43-143.729-235.786-2.335-3.768-4.649-7.537-6.984-11.325-12.882-20.91-4.854-49.562 15.606-62.239 15.462-9.564 36.086-6.902 53.535-6.902 60.129 0 120.238 0 180.326 0 32.543 0 65.044 0 97.526 0 28.59 0 57.139 0 85.709 0 10.26 0 20.132-0.225 29.757 4.239 24.228 11.223 33.935 41.697 20.603 64.881z" />
<glyph unicode="&#xe9b7;" d="M538.563-23.040c-11.674 0-25.17 0.963-36.516 8.008-23.47 14.5-31.355 46.121-17.244 69.038l6.984 11.325c12.288 19.968 24.678 39.916 37.048 59.863 35.574 57.303 72.356 116.511 106.598 175.8l46.326 80.241c4.485 7.885 9.093 16.015 16.876 22.241 8.888 7.148 20.152 11.080 31.785 11.080 15.053 0 29.184-6.41 38.789-17.572 4.485-5.222 7.823-11.325 11.080-17.224 0.983-1.823 1.987-3.645 2.99-5.386l22.303-38.605c3.42-5.919 6.799-11.878 10.179-17.838 6.656-11.776 13.558-23.962 20.726-35.656l139.878-228.352c7.107-12.329 8.643-27.238 4.28-40.98-4.383-13.763-14.213-25.027-27.034-30.945-10.117-4.69-20.582-4.69-29.041-4.69-0.041 0-0.061 0-0.123 0l-366.244 0.020c-3.011 0-6.185-0.082-9.359-0.164-3.4-0.123-6.84-0.205-10.281-0.205zM730.419 404.582c-9.359 0-18.432-3.133-25.559-8.868-6.308-5.038-10.26-12.042-14.459-19.415l-46.367-80.282c-34.324-59.433-71.148-118.743-106.742-176.087-12.37-19.948-24.76-39.875-37.069-59.843l-6.963-11.305c-11.1-18.022-4.567-43.95 14.008-55.419 9.257-5.693 21.012-6.451 31.293-6.451 3.359 0 6.697 0.082 9.994 0.184 3.277 0.061 6.492 0.143 9.626 0.143h366.244c0.020 0 0.020 0 0.020 0 9.523 0 17.388 0.287 24.965 3.789 10.301 4.731 18.207 13.824 21.75 24.924 3.523 11.080 2.294 23.081-3.379 32.891l-139.796 228.229c-7.229 11.837-14.152 24.125-20.91 35.963-3.359 5.919-6.717 11.858-10.097 17.756l-22.303 38.605c-1.044 1.823-2.109 3.707-3.113 5.571-2.99 5.468-6.103 11.080-9.851 15.524-7.762 8.97-19.149 14.090-31.293 14.090z" />
<glyph unicode="&#xe9b8;" d="M719.565 99.369l-11.244 158.454v66.273h45.466v-66.273l-10.588-158.454h-23.634zM709.96 25.17v41.8h42.23v-41.8h-42.23z" />
<glyph unicode="&#xe9b9;" d="M973.517 576.348c-3.932 4.588-9.687 7.229-15.77 7.229h-43.868v232.468c0 15.913-12.943 28.856-28.877 28.856h-500.818l-40.571 67.625c-5.161 8.643-14.664 14.049-24.781 14.049h-225.382c-15.913 0-28.877-12.964-28.877-28.877v-314.122h-43.827c-6.042 0-11.796-2.621-15.729-7.188-3.953-4.588-5.714-10.629-4.792-16.671l80.323-530.166c1.577-10.22 10.179-17.592 20.5-17.592h776.376c10.322 0 18.944 7.373 20.521 17.633l80.323 530.043c0.922 6.021-0.778 12.083-4.751 16.712z" />
<glyph unicode="&#xe9ba;" d="M143.155 680.387h688.927v-106.476h-688.927v106.476z" />
<glyph unicode="&#xe9bb;" d="M973.517 576.348c-3.932 4.588-9.687 7.229-15.77 7.229h-43.868v232.468c0 15.913-12.943 28.856-28.877 28.856h-500.818l-40.571 67.625c-5.161 8.643-14.664 14.049-24.76 14.049h-225.403c-15.933 0-28.877-12.964-28.877-28.877v-314.122h-43.827c-6.042 0-11.796-2.621-15.729-7.188-3.953-4.588-5.714-10.629-4.792-16.671l80.323-530.166c1.577-10.22 10.179-17.592 20.5-17.592h776.356c10.301 0 18.944 7.373 20.521 17.633l80.343 530.043c0.922 6.021-0.778 12.083-4.751 16.712zM97.28 893.891h219.402l40.571-67.645c5.181-8.663 14.684-14.049 24.76-14.049h499.2v-228.659h-32.645v114.34h-718.623v-114.34h-32.666v310.354zM357.274 826.286c5.181-8.663 14.684-14.049 24.76-14.049zM815.923 583.578h-653.312v81.674h653.312v-81.674zM867.226 44.605h-755.917l-76.698 506.286h909.292l-76.677-506.286z" />
<glyph unicode="&#xe9bc;" d="M972.083 51.343c-46.612 76.104-93.245 152.228-139.858 228.311-10.752 17.572-20.664 35.758-30.966 53.596-7.414 12.861-14.889 25.764-22.323 38.625-4.157 7.25-8.049 15.462-13.517 21.852-15.933 18.555-44.605 21.176-63.672 5.857-7.967-6.39-12.39-15.237-17.408-23.88-14.868-25.723-29.716-51.466-44.605-77.23-45.998-79.667-95.478-157.43-143.729-235.786-2.335-3.768-4.649-7.537-6.984-11.325-12.882-20.91-4.854-49.562 15.606-62.239 15.462-9.564 36.086-6.902 53.535-6.902 60.129 0 120.238 0 180.326 0 32.543 0 65.044 0 97.526 0 28.59 0 57.139 0 85.709 0 10.26 0 20.132-0.225 29.757 4.239 24.228 11.223 33.935 41.697 20.603 64.881z" />
<glyph unicode="&#xe9bd;" d="M538.644-38.564c-13.087 0-29.983 1.188-44.769 10.301-30.597 18.964-40.796 60.355-22.282 90.399l7.004 11.366c12.39 20.111 24.883 40.264 37.396 60.375 35.41 57.016 72.008 115.958 106.004 174.858l46.346 80.241c4.936 8.684 10.547 18.514 20.562 26.583 11.653 9.339 26.399 14.5 41.513 14.5 19.579 0 37.99-8.376 50.545-22.979 5.55-6.492 9.503-13.701 12.984-20.050l35.287-61.46c6.676-11.817 13.373-23.654 20.46-35.226l139.858-228.311c9.503-16.507 11.53-35.942 5.837-53.842-5.673-17.879-18.555-32.563-35.328-40.305-13.23-6.124-26.132-6.124-35.574-6.124l-2.765 20.48v-20.48h-363.54c-2.908 0-5.878-0.082-8.929-0.164-3.502-0.061-7.045-0.164-10.609-0.164zM730.419 389.1c-5.837 0-11.489-1.946-15.852-5.468-3.932-3.174-7.045-8.622-10.629-14.93l-46.449-80.445c-34.345-59.453-71.127-118.702-106.68-175.985-12.472-20.070-24.965-40.182-37.335-60.293l-7.004-11.325c-6.656-10.813-2.376-27.054 8.97-34.099 8.274-5.1 21.627-4.28 32.768-3.994 3.4 0.102 6.738 0.184 9.974 0.184h366.305c7.803 0 13.701 0.164 18.371 2.335 6.39 2.949 11.284 8.602 13.476 15.544 2.212 6.963 1.475 14.438-2.028 20.5l-139.551 227.84c-7.332 11.981-14.254 24.228-21.197 36.434l-35.533 61.952c-2.765 5.038-5.386 9.81-8.151 13.066-4.731 5.509-11.837 8.684-19.456 8.684z" />
<glyph unicode="&#xe9be;" d="M538.563-23.040c-11.674 0-25.17 0.963-36.516 8.008-23.47 14.5-31.355 46.121-17.244 69.038l6.984 11.325c12.288 19.968 24.678 39.916 37.048 59.863 35.574 57.303 72.356 116.511 106.598 175.8l46.326 80.241c4.485 7.885 9.093 16.015 16.876 22.241 8.888 7.148 20.152 11.080 31.785 11.080 15.053 0 29.184-6.41 38.789-17.572 4.485-5.222 7.823-11.325 11.080-17.224 0.983-1.823 1.987-3.645 2.99-5.386l22.303-38.605c3.42-5.919 6.799-11.878 10.179-17.838 6.656-11.776 13.558-23.962 20.726-35.656l139.878-228.352c7.107-12.329 8.643-27.238 4.28-40.98-4.383-13.763-14.213-25.027-27.034-30.945-10.117-4.69-20.582-4.69-29.041-4.69-0.041 0-0.061 0-0.123 0l-366.244 0.020c-3.011 0-6.185-0.082-9.359-0.164-3.4-0.123-6.84-0.205-10.281-0.205zM730.419 404.582c-9.359 0-18.432-3.133-25.559-8.868-6.308-5.038-10.26-12.042-14.459-19.415l-46.367-80.282c-34.324-59.433-71.148-118.743-106.742-176.087-12.37-19.948-24.76-39.875-37.069-59.843l-6.963-11.305c-11.1-18.022-4.567-43.95 14.008-55.419 9.257-5.693 21.012-6.451 31.293-6.451 3.359 0 6.697 0.082 9.994 0.184 3.277 0.061 6.492 0.143 9.626 0.143h366.244c0.020 0 0.020 0 0.020 0 9.523 0 17.388 0.287 24.965 3.789 10.301 4.731 18.207 13.824 21.75 24.924 3.523 11.080 2.294 23.081-3.379 32.891l-139.796 228.229c-7.229 11.837-14.152 24.125-20.91 35.963-3.359 5.919-6.717 11.858-10.097 17.756l-22.303 38.605c-1.044 1.823-2.109 3.707-3.113 5.571-2.99 5.468-6.103 11.080-9.851 15.524-7.762 8.97-19.149 14.090-31.293 14.090z" />
<glyph unicode="&#xe9bf;" d="M538.563-43.52c-13.722 0-31.478 1.27-47.309 11.080-32.87 20.296-43.827 64.819-23.9 97.178l7.004 11.346c12.288 19.968 24.699 39.936 37.089 59.904 35.697 57.508 72.294 116.429 106.25 175.247l46.326 80.241c4.874 8.581 10.998 19.333 21.832 27.996 12.452 10.015 28.303 15.565 44.564 15.565 20.992 0 40.796-8.991 54.292-24.699 5.775-6.738 9.789-13.988 13.292-20.337l35.533-61.952c6.554-11.592 13.332-23.572 20.357-35.062l139.878-228.352c10.24-17.736 12.431-38.666 6.349-57.876-6.124-19.21-19.968-35.021-37.97-43.336-14.234-6.574-28.303-6.574-37.622-6.574l-366.367 0.020c-2.826 0-5.775-0.082-8.765-0.164-3.564-0.143-7.188-0.225-10.834-0.225zM730.419 384.102c-4.71 0-9.236-1.536-12.739-4.342-3.215-2.58-6.083-7.619-9.4-13.435l-46.51-80.548c-34.447-59.638-71.291-119.030-106.947-176.415-12.554-20.234-24.904-40.1-37.151-60.006l-6.984-11.325c-5.202-8.438-1.638-21.688 7.332-27.238 4.874-3.011 13.517-3.4 20.521-3.4 3.154 0 6.287 0.082 9.38 0.184l10.24 0.143h366.244c8.315 0 12.902 0.287 16.404 1.905 5.079 2.335 8.991 6.902 10.793 12.534 1.782 5.591 1.208 11.592-1.577 16.425l-139.53 227.779c-6.717 11.018-13.189 22.385-19.476 33.444l-37.478 65.393c-2.171 3.994-4.915 9.011-7.475 12.042-3.727 4.321-9.462 6.861-15.647 6.861z" />
<glyph unicode="&#xe9c0;" d="M972.083 51.343c-46.612 76.104-93.245 152.228-139.858 228.311-10.752 17.572-20.664 35.758-30.966 53.596-7.414 12.861-14.889 25.764-22.323 38.625-4.157 7.25-8.049 15.462-13.517 21.852-15.933 18.555-44.605 21.176-63.672 5.857-7.967-6.39-12.39-15.237-17.408-23.88-14.868-25.723-29.716-51.466-44.605-77.23-45.998-79.667-95.478-157.43-143.729-235.786-2.335-3.768-4.649-7.537-6.984-11.325-12.882-20.91-4.854-49.562 15.606-62.239 15.462-9.564 36.086-6.902 53.535-6.902 60.129 0 120.238 0 180.326 0 32.543 0 65.044 0 97.526 0 28.59 0 57.139 0 85.709 0 10.26 0 20.132-0.225 29.757 4.239 24.228 11.223 33.935 41.697 20.603 64.881z" />
<glyph unicode="&#xe9c1;" d="M538.563-23.040c-11.674 0-25.17 0.963-36.516 8.008-23.47 14.5-31.355 46.121-17.244 69.038l6.984 11.325c12.288 19.968 24.678 39.916 37.048 59.863 35.574 57.303 72.356 116.511 106.598 175.8l46.326 80.241c4.485 7.885 9.093 16.015 16.876 22.241 8.888 7.148 20.152 11.080 31.785 11.080 15.053 0 29.184-6.41 38.789-17.572 4.485-5.222 7.823-11.325 11.080-17.224 0.983-1.823 1.987-3.645 2.99-5.386l22.303-38.605c3.42-5.919 6.799-11.878 10.179-17.838 6.656-11.776 13.558-23.962 20.726-35.656l139.878-228.352c7.107-12.329 8.643-27.238 4.28-40.98-4.383-13.763-14.213-25.027-27.034-30.945-10.117-4.69-20.582-4.69-29.041-4.69-0.041 0-0.061 0-0.123 0l-366.244 0.020c-3.011 0-6.185-0.082-9.359-0.164-3.4-0.123-6.84-0.205-10.281-0.205zM730.419 404.582c-9.359 0-18.432-3.133-25.559-8.868-6.308-5.038-10.26-12.042-14.459-19.415l-46.367-80.282c-34.324-59.433-71.148-118.743-106.742-176.087-12.37-19.948-24.76-39.875-37.069-59.843l-6.963-11.305c-11.1-18.022-4.567-43.95 14.008-55.419 9.257-5.693 21.012-6.451 31.293-6.451 3.359 0 6.697 0.082 9.994 0.184 3.277 0.061 6.492 0.143 9.626 0.143h366.244c0.020 0 0.020 0 0.020 0 9.523 0 17.388 0.287 24.965 3.789 10.301 4.731 18.207 13.824 21.75 24.924 3.523 11.080 2.294 23.081-3.379 32.891l-139.796 228.229c-7.229 11.837-14.152 24.125-20.91 35.963-3.359 5.919-6.717 11.858-10.097 17.756l-22.303 38.605c-1.044 1.823-2.109 3.707-3.113 5.571-2.99 5.468-6.103 11.080-9.851 15.524-7.762 8.97-19.149 14.090-31.293 14.090z" />
<glyph unicode="&#xe9c2;" d="M719.565 99.369l-11.244 158.454v66.273h45.466v-66.273l-10.588-158.454h-23.634zM709.96 25.17v41.8h42.23v-41.8h-42.23z" />
<glyph unicode="&#xe9c3;" d="M206.828 733.594c-13.885 0-26.276-7.127-30.065-17.347l-50.79-137.114c-6.902-12.472-10.383-25.354-10.383-38.216v-420.188c0-51.343 50.053-93.164 111.555-93.164h283.587c61.501 0 111.534 41.779 111.534 93.164v420.188c0 13.148-3.686 26.235-10.916 39.055l-1.516 3.666-45.363 132.178c-3.564 10.486-16.036 17.736-30.208 17.736l-327.434 0.041z" />
<glyph unicode="&#xe9c4;" d="M510.73 7.086h-283.587c-72.806 0-132.035 50.975-132.035 113.644v420.188c0 15.913 4.096 31.621 12.165 46.715l50.299 135.741c6.799 18.371 26.583 30.72 49.254 30.72l327.434-0.041c23.245 0 43.151-12.718 49.603-31.621l45.855-133.325c8.643-15.647 13.025-31.846 13.025-48.169v-420.209c0-62.669-59.228-113.644-132.014-113.644zM206.828 713.114c-6.308 0-10.281-2.847-10.875-4.014l-52.060-139.878c-5.181-9.38-7.823-18.903-7.823-28.303v-420.188c0-40.079 40.858-72.684 91.075-72.684h283.587c50.217 0 91.054 32.604 91.054 72.684v420.188c0 9.523-2.785 19.272-8.274 29l-2.601 5.878-45.814 133.386c-0.553 1.147-4.506 3.912-10.813 3.912l-327.455 0.020z" />
<glyph unicode="&#xe9c5;" d="M509.727 110.121h-281.518c-7.168 0-13.005 5.796-13.005 12.964v0c0 7.168 5.878 13.005 13.005 13.005h281.518c7.148 0 12.984-5.837 12.984-13.005v0c-0.041-7.168-5.816-12.964-12.984-12.964z" />
<glyph unicode="&#xe9c6;" d="M418.058 229.089h-98.222c-34.632 0-62.812 26.644-62.812 59.331v15.237h-17.654c-34.673 0-62.853 26.685-62.853 59.412v90.993c0 32.748 28.16 59.412 62.853 59.412h17.654v15.217c0 32.748 28.16 59.412 62.812 59.412h98.222c34.693 0 62.853-26.685 62.853-59.412v-15.155h17.654c34.693 0 62.833-26.685 62.833-59.412v-91.034c0-32.809-28.14-59.372-62.833-59.372h-17.654v-15.237c-0.020-32.809-28.221-59.392-62.853-59.392z" />
<glyph unicode="&#xe9c7;" d="M239.329 481.505c-17.019 0-30.822-12.288-30.822-27.402v-91.054c0-15.032 13.804-27.443 30.822-27.443h33.669c8.827 0 16.015-7.148 16.015-15.995v-31.15c0-15.094 13.824-27.402 30.822-27.402h98.222c16.998 0 30.822 12.349 30.822 27.402v31.13c0 8.888 7.188 15.954 16.015 15.954h33.69c17.019 0 30.843 12.37 30.843 27.484v91.013c0 15.135-13.906 27.402-30.843 27.402h-33.69c-8.827 0-16.015 7.168-16.015 15.995v31.252c0 15.135-13.824 27.382-30.822 27.382h-98.222c-16.998 0-30.822-12.288-30.822-27.382v-31.191c0-8.847-7.188-15.995-16.015-15.995h-33.669z" />
<glyph unicode="&#xe9c8;" d="M182.497 893.706c-6.779 0-12.452-5.693-12.452-12.472v-70.943c0-6.697 5.673-12.431 12.452-12.431h372.797c6.697 0 12.472 5.734 12.472 12.431v70.943c0.041 6.779-5.714 12.472-12.411 12.472h-372.859z" />
<glyph unicode="&#xe9c9;" d="M555.295 777.38h-372.797c-18.166 0-32.932 14.766-32.932 32.911v70.943c0 18.166 14.787 32.952 32.932 32.952h372.859c8.643 0 17.121-3.564 23.286-9.769 6.267-6.287 9.687-14.561 9.626-23.306v-70.82c0-18.145-14.787-32.911-32.973-32.911zM190.525 818.34h356.782v54.886h-356.782v-54.886z" />
<glyph unicode="&#xe9ca;" d="M926.31 48.169c-46.592 76.104-93.245 152.228-139.837 228.291-10.752 17.592-20.685 35.758-30.986 53.596-7.414 12.882-14.909 25.764-22.323 38.646-4.157 7.25-8.069 15.462-13.517 21.832-15.933 18.555-44.626 21.176-63.652 5.857-7.987-6.39-12.39-15.217-17.428-23.859-14.868-25.743-29.716-51.487-44.626-77.23-45.978-79.688-95.457-157.45-143.729-235.807-2.335-3.768-4.649-7.516-6.984-11.325-12.882-20.91-4.833-49.562 15.606-62.239 15.483-9.564 36.106-6.902 53.535-6.902 60.129 0 120.238 0 180.326 0 32.563 0 65.044 0 97.526 0 28.59 0 57.16 0 85.729 0 10.26 0 20.132-0.225 29.757 4.239 24.248 11.223 33.956 41.718 20.603 64.901z" />
<glyph unicode="&#xe9cb;" d="M492.872-41.738c-13.087 0-29.983 1.188-44.769 10.301-30.597 18.964-40.796 60.334-22.303 90.399l7.025 11.366c12.37 20.091 24.883 40.264 37.376 60.375 35.41 56.996 72.028 115.958 106.025 174.858l46.346 80.241c4.936 8.684 10.547 18.493 20.582 26.583 11.633 9.339 26.378 14.5 41.492 14.5 19.579 0 37.97-8.376 50.545-22.979 5.55-6.472 9.523-13.701 13.005-20.050l35.287-61.481c6.676-11.796 13.353-23.634 20.439-35.226l139.878-228.291c9.503-16.527 11.51-35.963 5.837-53.842s-18.555-32.563-35.348-40.325c-13.23-6.124-26.132-6.124-35.574-6.124l-2.765 20.48v-20.48h-363.52c-2.908 0-5.878-0.082-8.95-0.164-3.482-0.041-7.045-0.143-10.609-0.143zM684.667 385.925c-5.837 0-11.51-1.946-15.852-5.468-3.912-3.174-7.045-8.643-10.629-14.93l-46.469-80.445c-34.345-59.453-71.127-118.702-106.68-175.985-12.452-20.070-24.965-40.202-37.335-60.293l-7.004-11.346c-6.636-10.793-2.355-27.034 8.97-34.079 8.274-5.12 21.647-4.28 32.768-3.994 3.4 0.102 6.758 0.184 9.974 0.184h366.305c7.803 0 13.722 0.184 18.371 2.335 6.39 2.97 11.284 8.602 13.455 15.544 2.232 6.984 1.475 14.438-2.007 20.5l-139.551 227.84c-7.332 11.981-14.254 24.248-21.197 36.434l-35.512 61.952c-2.785 5.038-5.407 9.81-8.151 13.066-4.751 5.489-11.837 8.684-19.456 8.684z" />
<glyph unicode="&#xe9cc;" d="M492.79-26.214c-11.674 0-25.17 0.963-36.495 8.008-23.47 14.52-31.355 46.121-17.265 69.038l6.984 11.325c12.288 19.988 24.678 39.916 37.069 59.884 35.553 57.303 72.356 116.49 106.598 175.8l46.326 80.241c4.485 7.885 9.073 15.995 16.876 22.241 8.888 7.148 20.152 11.080 31.785 11.080 15.053 0 29.184-6.39 38.789-17.572 4.485-5.222 7.844-11.325 11.080-17.224 1.004-1.823 2.007-3.645 2.99-5.407l22.303-38.605c3.42-5.919 6.799-11.878 10.179-17.838 6.656-11.756 13.558-23.962 20.726-35.635l139.878-228.352c7.127-12.329 8.643-27.238 4.28-40.98-4.383-13.763-14.193-25.027-27.034-30.945-10.117-4.69-20.562-4.69-29.041-4.69-0.041 0-0.041 0-0.123 0h-366.264c-2.99 0-6.185-0.082-9.359-0.164-3.4-0.123-6.84-0.205-10.281-0.205zM684.667 401.408c-9.359 0-18.412-3.133-25.559-8.868-6.308-5.038-10.26-12.042-14.459-19.415l-46.367-80.282c-34.324-59.433-71.168-118.743-106.762-176.108-12.37-19.948-24.74-39.854-37.069-59.843l-6.963-11.305c-11.1-18.022-4.567-43.95 14.008-55.419 9.277-5.673 21.012-6.431 31.293-6.431 3.359 0 6.697 0.082 9.994 0.184 3.277 0.061 6.472 0.143 9.626 0.143h366.264c9.523 0 17.408 0.287 24.965 3.809 10.322 4.71 18.227 13.804 21.75 24.924 3.523 11.080 2.294 23.081-3.379 32.87l-139.776 228.25c-7.25 11.837-14.152 24.125-20.91 35.963-3.359 5.919-6.717 11.858-10.097 17.756l-22.303 38.605c-1.044 1.823-2.13 3.707-3.113 5.55-2.99 5.489-6.103 11.080-9.83 15.524-7.782 8.97-19.19 14.090-31.314 14.090z" />
<glyph unicode="&#xe9cd;" d="M492.79-46.694c-13.722 0-31.478 1.27-47.309 11.080-32.87 20.296-43.848 64.819-23.921 97.178l7.025 11.346c12.308 19.968 24.699 39.936 37.11 59.924 35.676 57.508 72.274 116.429 106.25 175.247l46.326 80.241c4.874 8.581 10.998 19.313 21.832 27.996 12.452 9.994 28.303 15.565 44.564 15.565 20.972 0 40.796-8.991 54.292-24.699 5.755-6.738 9.789-13.988 13.271-20.337l35.533-61.952c6.533-11.571 13.332-23.552 20.337-35.041l139.878-228.352c10.24-17.736 12.431-38.687 6.369-57.876-6.124-19.21-19.968-35.021-37.97-43.336-14.234-6.574-28.324-6.574-37.642-6.574l-366.326-0.020c-2.826 0-5.755-0.082-8.765-0.184-3.564-0.123-7.209-0.205-10.854-0.205zM684.667 380.928c-4.69 0-9.236-1.536-12.739-4.342-3.195-2.58-6.083-7.619-9.4-13.435l-46.51-80.548c-34.447-59.638-71.27-119.030-106.947-176.415-12.534-20.234-24.904-40.1-37.151-60.006l-6.963-11.325c-5.202-8.438-1.638-21.709 7.311-27.238 4.874-3.011 13.517-3.4 20.521-3.4 3.154 0 6.308 0.082 9.38 0.184l10.24 0.143h366.244c8.315 0 12.923 0.287 16.404 1.925 5.079 2.314 8.991 6.881 10.793 12.513 1.782 5.591 1.208 11.592-1.556 16.425l-139.53 227.779c-6.717 11.018-13.189 22.405-19.476 33.444l-37.478 65.393c-2.171 3.994-4.895 8.991-7.455 12.042-3.768 4.321-9.523 6.861-15.688 6.861z" />
<glyph unicode="&#xe9ce;" d="M926.31 48.169c-46.592 76.104-93.245 152.228-139.837 228.291-10.752 17.592-20.685 35.758-30.986 53.596-7.414 12.882-14.909 25.764-22.323 38.646-4.157 7.25-8.069 15.462-13.517 21.832-15.933 18.555-44.626 21.176-63.652 5.857-7.987-6.39-12.39-15.217-17.428-23.859-14.868-25.743-29.716-51.487-44.626-77.23-45.978-79.688-95.457-157.45-143.729-235.807-2.335-3.768-4.649-7.516-6.984-11.325-12.882-20.91-4.833-49.562 15.606-62.239 15.483-9.564 36.106-6.902 53.535-6.902 60.129 0 120.238 0 180.326 0 32.563 0 65.044 0 97.526 0 28.59 0 57.16 0 85.729 0 10.26 0 20.132-0.225 29.757 4.239 24.248 11.223 33.956 41.718 20.603 64.901z" />
<glyph unicode="&#xe9cf;" d="M492.79-26.214c-11.674 0-25.17 0.963-36.495 8.008-23.47 14.52-31.355 46.121-17.265 69.038l6.984 11.325c12.288 19.988 24.678 39.916 37.069 59.884 35.553 57.303 72.356 116.49 106.598 175.8l46.326 80.241c4.485 7.885 9.073 15.995 16.876 22.241 8.888 7.148 20.152 11.080 31.785 11.080 15.053 0 29.184-6.39 38.789-17.572 4.485-5.222 7.844-11.325 11.080-17.224 1.004-1.823 2.007-3.645 2.99-5.407l22.303-38.605c3.42-5.919 6.799-11.878 10.179-17.838 6.656-11.756 13.558-23.962 20.726-35.635l139.878-228.352c7.127-12.329 8.643-27.238 4.28-40.98-4.383-13.763-14.193-25.027-27.034-30.945-10.117-4.69-20.562-4.69-29.041-4.69-0.041 0-0.041 0-0.123 0h-366.264c-2.99 0-6.185-0.082-9.359-0.164-3.4-0.123-6.84-0.205-10.281-0.205zM684.667 401.408c-9.359 0-18.412-3.133-25.559-8.868-6.308-5.038-10.26-12.042-14.459-19.415l-46.367-80.282c-34.324-59.433-71.168-118.743-106.762-176.108-12.37-19.948-24.74-39.854-37.069-59.843l-6.963-11.305c-11.1-18.022-4.567-43.95 14.008-55.419 9.277-5.673 21.012-6.431 31.293-6.431 3.359 0 6.697 0.082 9.994 0.184 3.277 0.061 6.472 0.143 9.626 0.143h366.264c9.523 0 17.408 0.287 24.965 3.809 10.322 4.71 18.227 13.804 21.75 24.924 3.523 11.080 2.294 23.081-3.379 32.87l-139.776 228.25c-7.25 11.837-14.152 24.125-20.91 35.963-3.359 5.919-6.717 11.858-10.097 17.756l-22.303 38.605c-1.044 1.823-2.13 3.707-3.113 5.55-2.99 5.489-6.103 11.080-9.83 15.524-7.782 8.97-19.19 14.090-31.314 14.090z" />
<glyph unicode="&#xe9d0;" d="M673.792 96.174l-11.244 158.454v66.273h45.486v-66.273l-10.609-158.454h-23.634zM664.207 21.975v41.8h42.23v-41.8h-42.23z" />
<glyph unicode="&#xe9d1;" d="M513.966 397.619v123.29c-133.489-4.096-240.538-112.906-240.538-247.439 0-134.492 107.049-243.241 240.538-247.48v-0.799c-205.742-0.061-372.552 166.707-372.552 372.429s166.83 372.47 372.552 372.429v124.129l372.388-248.279-372.388-248.279z" />
<glyph unicode="&#xe9d2;" d="M513.802 5.939c-104.612 0-202.977 40.735-276.931 114.729-73.974 73.994-114.749 172.339-114.749 276.951 0 209.531 165.437 381.174 372.552 391.27v141.271l426.394-284.283-426.373-284.262v138.588c-114.77-13.251-202.015-109.281-202.015-226.714 0-124.027 97.464-224.317 221.901-228.311l18.657-0.532v-37.97l-19.395-0.717c0-0.020-0.020-0.020-0.041-0.020zM513.966 750.776c-194.847 0-353.28-158.433-353.28-353.157 0-94.29 36.721-183.030 103.444-249.733 14.602-14.602 30.29-27.791 46.817-39.465-35.656 45.343-56.771 102.646-56.771 165.069 0 145.060 113.869 262.185 259.215 266.67l19.866 0.614v-107.151l318.382 212.296-318.403 212.255v-107.397h-19.272z" />
<glyph unicode="&#xe9d3;" d="M882.319 31.15c-40.878 66.847-81.797 133.652-122.737 200.458-9.421 15.483-18.145 31.375-27.177 47.063-6.513 11.325-13.066 22.63-19.558 33.894-3.707 6.39-7.107 13.578-11.878 19.19-14.008 16.364-39.117 18.616-55.89 5.161-6.984-5.55-10.916-13.271-15.258-20.91-13.107-22.61-26.092-45.179-39.178-67.83-40.366-69.919-83.784-138.199-126.177-206.93-2.048-3.359-4.076-6.676-6.124-9.953-11.325-18.35-4.239-43.479 13.722-54.702 13.578-8.294 31.683-6.021 47.002-6.021 52.756 0 105.513 0 158.31 0 28.529 0 57.057 0 85.586 0 25.17 0 50.156 0 75.325 0 8.97 0 17.592-0.205 26.071 3.768 21.156 9.728 29.716 36.516 17.961 56.812z" />
<glyph unicode="&#xe9d4;" d="M501.801-48.947c-11.612 0-26.644 1.044-39.854 9.175-27.402 17.039-36.516 54.108-19.988 81.019l6.124 9.953c10.609 17.224 21.279 34.406 31.949 51.589 31.375 50.545 63.816 102.789 93.921 154.89l40.448 70.083c4.444 7.864 9.482 16.773 18.657 24.105 23.859 19.128 62.505 15.565 82.371-7.68 4.915-5.796 8.479-12.206 11.53-17.818l30.372-52.982c6.001-10.67 12.124-21.34 18.432-31.826l122.737-200.417c8.52-14.766 10.363-32.133 5.304-48.169-5.079-15.995-16.609-29.245-31.642-36.229-11.94-5.55-23.45-5.55-31.805-5.55h-321.331c-2.56 0-5.181-0.082-7.844-0.123-3.092 0.061-6.246-0.020-9.38-0.020zM670.249 326.472c-4.874 0-9.564-1.577-13.21-4.526-3.379-2.724-6.083-7.496-9.175-13.066l-40.612-70.39c-30.413-52.654-62.996-105.226-94.536-155.976-10.67-17.121-21.299-34.324-31.887-51.487l-6.205-9.953c-5.509-8.95-1.905-22.446 7.516-28.324 6.922-4.239 18.473-3.564 28.078-3.277 3.011 0.082 5.96 0.164 8.827 0.164h321.495c6.922 0 11.776 0.123 15.77 2.028 5.243 2.376 9.318 7.148 11.162 12.923s1.27 11.96-1.679 16.978l-122.47 200.090c-6.636 10.834-12.902 21.852-19.169 32.891l-30.72 53.371c-2.335 4.403-4.69 8.561-7.045 11.366-3.994 4.567-9.83 7.188-16.138 7.188z" />
<glyph unicode="&#xe9d5;" d="M660.664 73.339l-9.851 139.121v58.184h39.916v-58.184l-9.277-139.121h-20.787zM652.247 8.212v36.618h37.11v-36.618h-37.11z" />
<glyph unicode="&#xe9d6;" d="M657.244 702.013v79.073c0 38.257-31.007 69.263-69.243 69.263h-518.758c-38.236 0-69.243-31.007-69.243-69.263v-265.789c0-38.257 31.007-69.263 69.243-69.263h50.975v134.861c0 66.785 54.333 121.119 121.119 121.119h415.908z" />
<glyph unicode="&#xe9d7;" d="M829.317 501.821v79.073c0 38.257-31.007 69.243-69.243 69.243h-518.738c-38.257 0-69.263-31.007-69.263-69.243v-265.81c0-38.236 31.007-69.263 69.263-69.263h73.564v134.861c0 66.785 54.333 121.119 121.119 121.119h393.298z" />
<glyph unicode="&#xe9d8;" d="M954.757 449.966h-518.738c-38.257 0-69.243-31.007-69.243-69.263v-265.789c0-38.257 31.007-69.284 69.243-69.284h518.758c38.236 0 69.243 31.027 69.243 69.284v265.789c-0.020 38.257-31.027 69.263-69.263 69.263z" />
<glyph unicode="&#xe9d9;" d="M807.055 2.191h-644.977c-84.46 0-152.945 68.506-152.945 152.945v644.997c0 84.46 68.485 152.945 152.945 152.945h644.977c84.46 0 152.945-68.485 152.945-152.945v-644.997c0-84.48-68.485-152.945-152.945-152.945z" />
<glyph unicode="&#xe9da;" d="M813.711 697.057h-329.134c-10.097 0-18.289 8.172-18.289 18.289s8.192 18.289 18.289 18.289h329.134c10.076 0 18.309-8.172 18.309-18.289-0.020-10.117-8.212-18.289-18.309-18.289z" />
<glyph unicode="&#xe9db;" d="M813.711 441.057h-329.134c-10.097 0-18.289 8.151-18.289 18.289s8.192 18.289 18.289 18.289h329.134c10.076 0 18.309-8.172 18.309-18.289-0.020-10.117-8.212-18.289-18.309-18.289z" />
<glyph unicode="&#xe9dc;" d="M813.711 185.057h-329.134c-10.097 0-18.289 8.131-18.289 18.309 0 10.138 8.192 18.289 18.289 18.289h329.134c10.076 0 18.309-8.131 18.309-18.289s-8.212-18.309-18.309-18.309z" />
<glyph unicode="&#xe9dd;" d="M229.868 642.212c-3.83 0-7.68 1.188-10.977 3.666l-83.599 62.71c-8.090 6.042-9.708 17.51-3.645 25.58 6.042 8.090 17.51 9.708 25.6 3.666l69.878-52.408 114.258 133.263c6.595 7.68 18.145 8.561 25.784 1.987 7.66-6.574 8.561-18.104 1.966-25.764l-125.379-146.289c-3.604-4.239-8.704-6.41-13.885-6.41z" />
<glyph unicode="&#xe9de;" d="M229.868 386.191c-3.83 0-7.68 1.188-10.977 3.666l-83.599 62.71c-8.090 6.042-9.708 17.51-3.645 25.58 6.042 8.090 17.51 9.708 25.6 3.666l69.878-52.429 114.258 133.284c6.595 7.68 18.145 8.561 25.784 1.987 7.66-6.574 8.561-18.104 1.966-25.764l-125.379-146.289c-3.604-4.219-8.704-6.41-13.885-6.41z" />
<glyph unicode="&#xe9df;" d="M229.868 111.944c-3.83 0-7.68 1.229-10.977 3.666l-83.599 62.71c-8.090 6.042-9.708 17.49-3.645 25.559 6.042 8.11 17.51 9.748 25.6 3.686l69.878-52.429 114.258 133.243c6.595 7.68 18.145 8.561 25.784 1.966 7.66-6.533 8.561-18.084 1.966-25.764l-125.379-146.309c-3.604-4.198-8.704-6.328-13.885-6.328z" />
<glyph unicode="&#xe9e0;" d="M971.53 40.632c-46.592 76.104-93.245 152.228-139.837 228.291-10.752 17.592-20.685 35.758-30.986 53.596-7.414 12.882-14.909 25.764-22.323 38.646-4.157 7.25-8.069 15.462-13.517 21.832-15.933 18.555-44.626 21.176-63.652 5.857-7.987-6.39-12.39-15.217-17.428-23.859-14.868-25.743-29.716-51.487-44.626-77.23-45.978-79.688-95.457-157.45-143.729-235.807-2.335-3.768-4.649-7.516-6.984-11.325-12.882-20.91-4.854-49.562 15.626-62.239 15.442-9.564 36.086-6.902 53.514-6.902 60.129 0 120.238 0 180.326 0 32.563 0 65.044 0 97.526 0 28.59 0 57.16 0 85.729 0 10.26 0 20.132-0.225 29.757 4.239 24.228 11.244 33.935 41.738 20.603 64.901z" />
</font>
</defs>
</svg>
